<?xml version="1.0" encoding="utf-8"?>
<!-- Generator: Adobe Illustrator 16.0.0, SVG Export Plug-In . SVG Version: 6.00 Build 0)  -->
<!DOCTYPE svg PUBLIC "-//W3C//DTD SVG 1.1//EN" "http://www.w3.org/Graphics/SVG/1.1/DTD/svg11.dtd">
<svg version="1.1" id="隔离模式" xmlns="http://www.w3.org/2000/svg" xmlns:xlink="http://www.w3.org/1999/xlink" x="0px"
	 y="0px" width="21.045px" height="9.265px" viewBox="0 0 21.045 9.265" enable-background="new 0 0 21.045 9.265"
	 xml:space="preserve">
<g>
	<g>
		<g>
			<path fill="#4672FF" d="M13.72,5.64c0,0,0.087,0.339,0.58,0.402c0.498,0.055,1.162,0.128,1.826,0.202
				c0.167,0.018,0.332,0.038,0.497,0.054c0.165,0.016,0.327,0.031,0.485,0.046c0.314,0.03,0.608,0.058,0.859,0.082
				c0.503,0.047,1.155-0.481,1.155-0.481s-0.989-0.094-1.978-0.187c-0.249-0.022-0.491-0.052-0.721-0.076
				c-0.229-0.025-0.444-0.049-0.627-0.069c-0.367-0.041-0.612-0.068-0.612-0.068s-0.079-0.008-0.198-0.021
				c-0.12-0.013-0.278-0.031-0.435-0.052c-0.314-0.04-0.628-0.079-0.628-0.079s-0.187-0.024-0.513-0.065
				c-0.326-0.042-0.795-0.098-1.345-0.179c-0.276-0.04-0.575-0.083-0.892-0.127c-0.316-0.045-0.652-0.091-0.99-0.147
				C9.842,4.818,9.49,4.762,9.133,4.705C8.776,4.648,8.411,4.592,8.056,4.526C7.699,4.463,7.342,4.4,6.99,4.338
				C6.814,4.307,6.64,4.276,6.467,4.245C6.296,4.214,6.13,4.18,5.965,4.148C5.636,4.084,5.318,4.022,5.017,3.964
				c-0.301-0.06-0.59-0.112-0.845-0.169C3.138,3.575,2.45,3.428,2.45,3.428L2.122,3.654c0,0,0.696,0.148,1.74,0.371
				c0.259,0.058,0.551,0.111,0.855,0.171c0.305,0.06,0.626,0.122,0.959,0.187c0.167,0.032,0.335,0.066,0.508,0.098
				c0.174,0.031,0.351,0.062,0.528,0.094c0.355,0.063,0.717,0.126,1.078,0.19c0.359,0.066,0.728,0.123,1.089,0.181
				S9.595,5.06,9.939,5.115c0.342,0.057,0.682,0.103,1.001,0.149c0.32,0.045,0.623,0.089,0.902,0.128
				c0.556,0.083,1.03,0.139,1.359,0.181C13.532,5.616,13.72,5.64,13.72,5.64z"/>
		</g>
	</g>
</g>
</svg>
