<?xml version="1.0" encoding="utf-8"?>
<!-- Generator: Adobe Illustrator 16.0.0, SVG Export Plug-In . SVG Version: 6.00 Build 0)  -->
<!DOCTYPE svg PUBLIC "-//W3C//DTD SVG 1.1//EN" "http://www.w3.org/Graphics/SVG/1.1/DTD/svg11.dtd">
<svg version="1.1" id="隔离模式" xmlns="http://www.w3.org/2000/svg" xmlns:xlink="http://www.w3.org/1999/xlink" x="0px"
	 y="0px" width="21.045px" height="9.265px" viewBox="0 0 21.045 9.265" enable-background="new 0 0 21.045 9.265"
	 xml:space="preserve">
<g>
	<g>
		<g>
			<path fill="#4672FF" d="M7.523,5.64c0,0-0.087,0.339-0.58,0.402C6.445,6.097,5.781,6.17,5.117,6.244
				C4.951,6.262,4.786,6.281,4.621,6.297C4.456,6.313,4.293,6.329,4.136,6.343c-0.314,0.03-0.608,0.058-0.859,0.082
				C2.773,6.472,2.122,5.944,2.122,5.944S3.11,5.85,4.1,5.757c0.249-0.022,0.491-0.052,0.721-0.076
				C5.05,5.655,5.265,5.631,5.448,5.611c0.367-0.041,0.612-0.068,0.612-0.068S6.14,5.535,6.259,5.522
				c0.12-0.013,0.278-0.031,0.435-0.052c0.314-0.04,0.628-0.079,0.628-0.079s0.187-0.024,0.513-0.065
				C8.16,5.285,8.629,5.229,9.179,5.147c0.276-0.04,0.575-0.083,0.892-0.127c0.316-0.045,0.652-0.091,0.99-0.147
				c0.34-0.055,0.692-0.111,1.049-0.167c0.357-0.057,0.722-0.113,1.077-0.179c0.357-0.063,0.714-0.126,1.066-0.188
				c0.176-0.031,0.351-0.062,0.523-0.093c0.171-0.031,0.337-0.065,0.502-0.097c0.329-0.064,0.647-0.126,0.949-0.185
				c0.301-0.06,0.59-0.112,0.845-0.169c1.033-0.22,1.722-0.367,1.722-0.367l0.328,0.227c0,0-0.696,0.148-1.74,0.371
				c-0.259,0.058-0.551,0.111-0.855,0.171c-0.305,0.06-0.626,0.122-0.959,0.187C15.4,4.415,15.232,4.449,15.06,4.481
				c-0.174,0.031-0.351,0.062-0.528,0.094c-0.355,0.063-0.717,0.126-1.078,0.19c-0.359,0.066-0.728,0.123-1.089,0.181
				s-0.717,0.114-1.061,0.169c-0.342,0.057-0.682,0.103-1.001,0.149C9.982,5.31,9.68,5.353,9.401,5.393
				c-0.556,0.083-1.03,0.139-1.359,0.181C7.711,5.616,7.523,5.64,7.523,5.64z"/>
		</g>
	</g>
</g>
</svg>
