<?xml version="1.0" encoding="utf-8"?>
<!-- Generator: Adobe Illustrator 16.0.0, SVG Export Plug-In . SVG Version: 6.00 Build 0)  -->
<!DOCTYPE svg PUBLIC "-//W3C//DTD SVG 1.1//EN" "http://www.w3.org/Graphics/SVG/1.1/DTD/svg11.dtd">
<svg version="1.1" id="隔离模式" xmlns="http://www.w3.org/2000/svg" xmlns:xlink="http://www.w3.org/1999/xlink" x="0px"
	 y="0px" width="43px" height="51px" viewBox="0 0 43 51" enable-background="new 0 0 43 51" xml:space="preserve">
<g>
	<g>
		<g>
			<rect x="33.938" y="26.607" fill="#4672FF" width="0.563" height="3.882"/>
		</g>
	</g>
	<g>
		<g>
			<rect x="32.813" y="22.221" fill="#4672FF" width="0" height="8.443"/>
		</g>
	</g>
	<g>
		<g>
			<rect x="32.813" y="26.443" fill="#4672FF" width="0" height="8.443"/>
		</g>
	</g>
	<g>
		<g>
			<rect x="30.563" y="28.554" fill="#4672FF" width="0" height="12.667"/>
		</g>
	</g>
	<g>
		<g>
			<rect x="30.563" y="26.443" fill="#4672FF" width="0" height="6.332"/>
		</g>
	</g>
	<g>
		<g>
			<rect x="30.563" y="22.221" fill="#4672FF" width="0" height="8.443"/>
		</g>
	</g>
	<g>
		<g>
			<rect x="28.313" y="7.442" fill="#4672FF" width="0" height="21.111"/>
		</g>
	</g>
	<g>
		<g>
			<rect x="28.313" y="17.998" fill="#4672FF" width="0" height="10.556"/>
		</g>
	</g>
	<g>
		<g>
			<rect x="26.625" y="24.39" fill="#4672FF" width="1.688" height="6.1"/>
		</g>
	</g>
	<g>
		<g>
			<rect x="26.625" y="26.443" fill="#4672FF" width="0" height="8.443"/>
		</g>
	</g>
	<g>
		<g>
			<rect x="26.625" y="26.443" fill="#4672FF" width="0" height="8.443"/>
		</g>
	</g>
	<g>
		<g>
			<rect x="24.375" y="28.554" fill="#4672FF" width="0" height="12.667"/>
		</g>
	</g>
	<g>
		<g>
			<rect x="24.375" y="26.443" fill="#4672FF" width="0" height="18.999"/>
		</g>
	</g>
	<g>
		<g>
			<rect x="24.375" y="26.443" fill="#4672FF" width="0" height="8.443"/>
		</g>
	</g>
	<g>
		<g>
			<rect x="22.125" y="22.221" fill="#4672FF" width="0" height="14.777"/>
		</g>
	</g>
	<g>
		<g>
			<rect x="22.125" y="26.443" fill="#4672FF" width="0" height="10.555"/>
		</g>
	</g>
	<g>
		<g>
			<rect x="19.875" y="28.271" fill="#4672FF" width="2.25" height="15.528"/>
		</g>
	</g>
	<g>
		<g>
			<rect x="19.875" y="28.554" fill="#4672FF" width="0" height="12.667"/>
		</g>
	</g>
	<g>
		<g>
			<rect x="19.875" y="20.109" fill="#4672FF" width="0" height="14.777"/>
		</g>
	</g>
	<g>
		<g>
			<rect x="18.188" y="20.109" fill="#4672FF" width="0" height="12.666"/>
		</g>
	</g>
	<g>
		<g>
			<rect x="18.188" y="15.888" fill="#4672FF" width="0" height="12.666"/>
		</g>
	</g>
	<g>
		<g>
			<rect x="18.188" y="13.776" fill="#4672FF" width="0" height="14.777"/>
		</g>
	</g>
	<g>
		<g>
			<rect x="15.938" y="22.221" fill="#4672FF" width="0" height="8.443"/>
		</g>
	</g>
	<g>
		<g>
			<rect x="14.813" y="26.607" fill="#4672FF" width="1.125" height="3.882"/>
		</g>
	</g>
	<g>
		<g>
			<rect x="13.688" y="26.607" fill="#4672FF" width="2.25" height="11.092"/>
		</g>
	</g>
	<g>
		<g>
			<rect x="13.688" y="26.443" fill="#4672FF" width="0" height="10.555"/>
		</g>
	</g>
	<g>
		<g>
			<rect x="13.688" y="26.443" fill="#4672FF" width="0" height="8.443"/>
		</g>
	</g>
	<g>
		<g>
			<rect x="12" y="26.443" fill="#4672FF" width="0" height="6.332"/>
		</g>
	</g>
	<g>
		<g>
			<rect x="12" y="22.221" fill="#4672FF" width="0" height="8.443"/>
		</g>
	</g>
	<g>
		<g>
			<rect x="12" y="17.998" fill="#4672FF" width="0" height="10.556"/>
		</g>
	</g>
	<g>
		<g>
			<rect x="9.75" y="17.998" fill="#4672FF" width="0" height="10.556"/>
		</g>
	</g>
	<g>
		<g>
			<rect x="8.625" y="26.212" fill="#4672FF" width="0" height="4.107"/>
		</g>
	</g>
	<g>
		<g>
			<rect x="7.5" y="26.607" fill="#4672FF" width="2.25" height="8.319"/>
		</g>
	</g>
	<g>
		<g>
			<rect x="7.5" y="26.443" fill="#4672FF" width="0" height="6.332"/>
		</g>
	</g>
	<g>
		<g>
			<g>
				<rect x="34.5" y="26.212" fill="#4672FF" width="0" height="4.107"/>
			</g>
		</g>
	</g>
</g>
</svg>
