<?xml version="1.0" encoding="utf-8"?>
<!-- Generator: Adobe Illustrator 16.0.0, SVG Export Plug-In . SVG Version: 6.00 Build 0)  -->
<!DOCTYPE svg PUBLIC "-//W3C//DTD SVG 1.1//EN" "http://www.w3.org/Graphics/SVG/1.1/DTD/svg11.dtd">
<svg version="1.1" id="图层_1" xmlns="http://www.w3.org/2000/svg" xmlns:xlink="http://www.w3.org/1999/xlink" x="0px" y="0px"
	 width="934px" height="130.203px" viewBox="7.369 0 934 130.203" enable-background="new 7.369 0 934 130.203"
	 xml:space="preserve">
<g id="图层_1_1_" display="none">
	
		<image display="inline" overflow="visible" enable-background="new    " width="767" height="611" xlink:href="C:\Users\Administrator\Desktop\left 拷贝 2.png"  transform="matrix(0.9999 0 0 0.9999 -31.5386 -623.5762)">
	</image>
</g>
<g id="图层_2">
	<g id="图层_4">
		<rect x="13.386" y="8.831" opacity="0.18" fill="#021230" enable-background="new    " width="223.138" height="113.836"/>
	</g>
	<g id="图层_4_x5F_复制">
		<rect x="243.306" y="7.812" opacity="0.18" fill="#021230" enable-background="new    " width="694.061" height="114.855"/>
		<rect x="236.524" y="67.464" opacity="0.19" fill="#021230" enable-background="new    " width="6.781" height="4.734"/>
	</g>
	<rect x="22.754" y="-622.415" display="none" fill="#4672FF" width="648.153" height="0.891"/>
	<rect x="22.754" y="-622.415" display="none" fill="#4672FF" width="648.153" height="0.891"/>
	<path fill="none" stroke="#4672FF" stroke-miterlimit="10" d="M237.513,8.283h-225H237.513z"/>
	<path fill="none" stroke="#4672FF" stroke-miterlimit="10" d="M937.366,8.283H242.365H937.366z"/>
	<path fill="none" stroke="#4672FF" stroke-miterlimit="10" d="M937.368,123.041H242.366H937.368z"/>
	<path fill="none" stroke="#4672FF" stroke-miterlimit="10" d="M237.513,46.845h-225H237.513z"/>
	<path fill="none" stroke="#4672FF" stroke-miterlimit="10" d="M237.513,123.041h-225H237.513z"/>
	<path fill="none" stroke="#4672FF" stroke-miterlimit="10" d="M12.921,123.565V7.812V123.565z"/>
	<path fill="none" stroke="#4672FF" stroke-miterlimit="10" d="M937.366,123.565V7.812V123.565z"/>
	<path fill="none" stroke="#4672FF" stroke-miterlimit="10" d="M237.024,67.136v-59V67.136z"/>
	<path fill="none" stroke="#4672FF" stroke-miterlimit="10" d="M242.809,67.136v-59V67.136z"/>
	<path fill="none" stroke="#4672FF" stroke-miterlimit="10" d="M237.024,122.667V72.746V122.667z"/>
	<path fill="none" stroke="#4672FF" stroke-miterlimit="10" d="M242.809,122.667V72.746V122.667z"/>
	<line fill="none" stroke="#4672FF" stroke-miterlimit="10" x1="236.524" y1="67.203" x2="243.306" y2="67.203"/>
	<line fill="none" stroke="#4672FF" stroke-miterlimit="10" x1="236.524" y1="72.746" x2="243.306" y2="72.746"/>
</g>
<g id="图层_2_x5F_复制" display="none">
	<rect x="12.921" y="-613.472" display="inline" fill="#4672FF" width="648.153" height="0.891"/>
	<rect x="12.921" y="-15.042" display="inline" fill="#4672FF" width="648.153" height="0.891"/>
	<rect x="12.513" y="-15.042" display="inline" fill="#4672FF" width="648.561" height="0.891"/>
	<path display="inline" fill="#4672FF" d="M13.271-15.042"/>
</g>
</svg>
