<?xml version="1.0" encoding="utf-8"?>
<!-- Generator: Adobe Illustrator 16.0.0, SVG Export Plug-In . SVG Version: 6.00 Build 0)  -->
<!DOCTYPE svg PUBLIC "-//W3C//DTD SVG 1.1//EN" "http://www.w3.org/Graphics/SVG/1.1/DTD/svg11.dtd">
<svg version="1.1" id="图层_1" xmlns="http://www.w3.org/2000/svg" xmlns:xlink="http://www.w3.org/1999/xlink" x="0px" y="0px"
	 width="673.338px" height="625.993px" viewBox="0 0 673.338 625.993" enable-background="new 0 0 673.338 625.993"
	 xml:space="preserve">
<g id="图层_1_1_" display="none">
</g>
<g id="图层_2">
	<rect x="12.921" y="350.157" opacity="0.39" fill="#041B34" enable-background="new    " width="648.241" height="266.605"/>
	<rect x="22.754" y="8.945" fill="#4672FF" width="648.154" height="0.891"/>
	<rect x="22.754" y="8.945" fill="#4672FF" width="648.154" height="0.891"/>
	<line fill="none" stroke="#4672FF" stroke-miterlimit="10" x1="12.921" y1="18.779" x2="23.091" y2="9.391"/>
	<path fill="none" stroke="#4672FF" stroke-miterlimit="10" d="M661.074,17.888v599.321V17.888z"/>
	<path fill="none" stroke="#4672FF" stroke-miterlimit="10" d="M12.921,19.231v597.533V19.231z"/>
	<path opacity="0.4" fill="none" stroke="#4672FF" stroke-miterlimit="10" enable-background="new    " d="M23.091,9.391
		l0.001,332.384L23.091,9.391z"/>
	<path fill="none" stroke="#4672FF" stroke-miterlimit="10" d="M670.908,9.472v597.532V9.472z"/>
	<line fill="none" stroke="#4672FF" stroke-miterlimit="10" x1="661.078" y1="192.998" x2="12.921" y2="192.998"/>
	
		<line opacity="0.4" fill="none" stroke="#4672FF" stroke-miterlimit="10" enable-background="new    " x1="670.621" y1="341.775" x2="22.709" y2="341.775"/>
	
		<line opacity="0.4" fill="none" stroke="#4672FF" stroke-miterlimit="10" enable-background="new    " x1="671.001" y1="390.142" x2="23.092" y2="390.142"/>
	<line fill="none" stroke="#4672FF" stroke-miterlimit="10" x1="660.832" y1="400.064" x2="12.921" y2="400.064"/>
	<line fill="none" stroke="#4672FF" stroke-miterlimit="10" x1="660.832" y1="350.157" x2="12.921" y2="350.157"/>
	<line fill="none" stroke="#4672FF" stroke-miterlimit="10" x1="670.908" y1="9.472" x2="661.074" y2="18.779"/>
	<line fill="none" stroke="#4672FF" stroke-miterlimit="10" x1="661.162" y1="616.319" x2="670.994" y2="607.006"/>
	<path fill="none" stroke="#4672FF" stroke-miterlimit="10" d="M661.074,616.319"/>
	
		<line opacity="0.4" fill="none" stroke="#4672FF" stroke-miterlimit="10" enable-background="new    " x1="13.271" y1="400.277" x2="23.108" y2="390.142"/>
	
		<line opacity="0.4" fill="none" stroke="#4672FF" stroke-miterlimit="10" enable-background="new    " x1="13.087" y1="350.842" x2="22.924" y2="340.708"/>
	
		<line opacity="0.4" fill="none" stroke="#4672FF" stroke-miterlimit="10" enable-background="new    " x1="661.074" y1="350.842" x2="670.91" y2="340.708"/>
	
		<line opacity="0.4" fill="none" stroke="#4672FF" stroke-miterlimit="10" enable-background="new    " x1="661.074" y1="400.277" x2="670.91" y2="390.142"/>
	<path fill="none" stroke="#4672FF" stroke-miterlimit="10" d="M12.513,617.209"/>
	<line fill="none" stroke="#4672FF" stroke-miterlimit="10" x1="661.119" y1="19.231" x2="12.963" y2="19.231"/>
	<line fill="none" stroke="#4672FF" stroke-miterlimit="10" x1="660.997" y1="617.209" x2="13.086" y2="617.209"/>
</g>
<g id="图层_2_x5F_复制" display="none">
	<rect x="12.921" y="17.888" display="inline" fill="#4672FF" width="648.153" height="0.891"/>
	<rect x="12.921" y="616.319" display="inline" fill="#4672FF" width="648.153" height="0.891"/>
	<rect x="12.513" y="616.319" display="inline" fill="#4672FF" width="648.561" height="0.891"/>
	<path display="inline" fill="#4672FF" d="M13.271,616.319"/>
</g>
</svg>
