<?xml version="1.0" encoding="utf-8"?>
<!-- Generator: Adobe Illustrator 16.0.0, SVG Export Plug-In . SVG Version: 6.00 Build 0)  -->
<!DOCTYPE svg PUBLIC "-//W3C//DTD SVG 1.1//EN" "http://www.w3.org/Graphics/SVG/1.1/DTD/svg11.dtd">
<svg version="1.1" id="图层_1" xmlns="http://www.w3.org/2000/svg" xmlns:xlink="http://www.w3.org/1999/xlink" x="0px" y="0px"
	 width="1813px" height="253px" viewBox="-6.663 -10.249 1813 253" enable-background="new -6.663 -10.249 1813 253"
	 xml:space="preserve">
<g id="隔离模式_x5F_复制">
	<g>
		<path fill="#4672FF" d="M0.381,52.648h-0.527V28.095l13.678-13.762h244.097c3.063,0,5.554,2.505,5.554,5.584v7.941
			c0,2.476,2.003,4.49,4.463,4.49h100.63c1.334,0,2.586,0.521,3.528,1.469l12.974,13.051l-0.373,0.375l-12.974-13.051
			c-0.846-0.846-1.965-1.313-3.155-1.313H267.644c-2.752,0-4.99-2.251-4.99-5.021v-7.94c0-2.786-2.254-5.053-5.023-5.053H13.751
			l-13.37,13.45V52.648L0.381,52.648z"/>
	</g>
	<line fill="none" stroke="#4672FF" stroke-miterlimit="10" x1="-0.146" y1="47.107" x2="894.853" y2="47.107"/>
	<line fill="none" stroke="#4672FF" stroke-width="0.6" stroke-miterlimit="10" x1="0.147" y1="47.107" x2="0.147" y2="238.242"/>
	
		<line fill="none" stroke="#4672FF" stroke-width="0.6" stroke-miterlimit="10" x1="894.853" y1="46.614" x2="894.853" y2="137.152"/>
	
		<line fill="none" stroke="#4672FF" stroke-width="0.6" stroke-miterlimit="10" x1="894.853" y1="148.214" x2="894.853" y2="238.751"/>
	<line fill="none" stroke="#4672FF" stroke-miterlimit="10" x1="-0.146" y1="238.242" x2="894.853" y2="238.242"/>
	<rect x="0.147" y="47.107" opacity="0.18" fill="#021230" enable-background="new    " width="894.705" height="191.135"/>
	<g>
		<path fill="#4672FF" d="M1801.294,52.648h0.527V28.095l-13.678-13.762h-244.1c-3.061,0-5.551,2.505-5.551,5.584v7.941
			c0,2.476-2.002,4.49-4.463,4.49H1433.4c-1.334,0-2.586,0.521-3.527,1.469l-12.975,13.051l0.373,0.375l12.975-13.051
			c0.842-0.846,1.963-1.313,3.154-1.313h100.631c2.752,0,4.99-2.251,4.99-5.021v-7.94c0-2.786,2.254-5.053,5.021-5.053h243.877
			l13.371,13.45v24.332H1801.294L1801.294,52.648z"/>
	</g>
	<g>
		<path fill="#4672FF" d="M1801.294,52.648h0.527V28.095l-13.678-13.762h-244.1c-3.061,0-5.551,2.505-5.551,5.584v7.941
			c0,2.476-2.002,4.49-4.463,4.49H1433.4c-1.334,0-2.586,0.521-3.527,1.469l-12.975,13.051l0.373,0.375l12.975-13.051
			c0.842-0.846,1.963-1.313,3.154-1.313h100.631c2.752,0,4.99-2.251,4.99-5.021v-7.94c0-2.786,2.254-5.053,5.021-5.053h243.877
			l13.371,13.45v24.332H1801.294L1801.294,52.648z"/>
	</g>
	<line fill="none" stroke="#4672FF" stroke-miterlimit="10" x1="1801.822" y1="47.107" x2="906.824" y2="47.107"/>
	
		<line fill="none" stroke="#4672FF" stroke-width="0.6" stroke-miterlimit="10" x1="1801.529" y1="47.107" x2="1801.529" y2="238.242"/>
	
		<line fill="none" stroke="#4672FF" stroke-width="0.6" stroke-miterlimit="10" x1="906.824" y1="46.614" x2="906.824" y2="137.152"/>
	
		<line fill="none" stroke="#4672FF" stroke-width="0.6" stroke-miterlimit="10" x1="906.824" y1="148.214" x2="906.824" y2="238.751"/>
	<line fill="none" stroke="#4672FF" stroke-miterlimit="10" x1="1801.822" y1="238.242" x2="906.824" y2="238.242"/>
	
		<line fill="none" stroke="#4672FF" stroke-width="0.6" stroke-miterlimit="10" x1="894.593" y1="137.152" x2="906.593" y2="137.152"/>
	
		<line fill="none" stroke="#4672FF" stroke-width="0.6" stroke-miterlimit="10" x1="894.593" y1="148.214" x2="906.593" y2="148.214"/>
	<rect x="906.968" y="47.107" opacity="0.18" fill="#021230" enable-background="new    " width="894.707" height="191.135"/>
	<rect x="894.853" y="137.152" opacity="0.18" fill="#021230" enable-background="new    " width="11.971" height="11.063"/>
	<g>
		<path fill="#195BA1" d="M91.091,0.267c-3.463,4.686-7.711,10.439-7.711,10.439h-1.293c0,0,4.248-5.754,7.711-10.439H91.091z"/>
		<path fill="#195BA1" d="M94.079,0.267c-3.463,4.686-7.711,10.439-7.711,10.439h-1.291c0,0,4.248-5.754,7.711-10.439H94.079z"/>
		<path fill="#195BA1" d="M97.07,0.267c-3.463,4.686-7.711,10.439-7.711,10.439h-1.293c0,0,4.248-5.754,7.711-10.439H97.07z"/>
		<path fill="#195BA1" d="M100.058,0.267c-3.463,4.686-7.711,10.439-7.711,10.439h-1.291c0,0,4.248-5.754,7.711-10.439H100.058z"/>
		<path fill="#195BA1" d="M103.048,0.267c-3.463,4.686-7.711,10.439-7.711,10.439h-1.293c0,0,4.248-5.754,7.711-10.439H103.048z"/>
		<path fill="#195BA1" d="M106.036,0.267c-3.463,4.686-7.711,10.439-7.711,10.439h-1.291c0,0,4.248-5.754,7.711-10.439H106.036z"/>
		<path fill="#195BA1" d="M109.023,0.267c-3.461,4.686-7.709,10.439-7.709,10.439h-1.291c0,0,4.248-5.754,7.711-10.439H109.023z"/>
		<path fill="#195BA1" d="M112.013,0.267c-3.463,4.686-7.709,10.439-7.709,10.439h-1.291c0,0,4.246-5.754,7.709-10.439H112.013z"/>
		<path fill="#195BA1" d="M115.001,0.267c-3.461,4.686-7.709,10.439-7.709,10.439h-1.291c0,0,4.246-5.754,7.709-10.439H115.001z"/>
		<path fill="#195BA1" d="M117.991,0.267c-3.461,4.686-7.709,10.439-7.709,10.439h-1.291c0,0,4.246-5.754,7.709-10.439H117.991z"/>
		<path fill="#195BA1" d="M120.98,0.267c-3.461,4.686-7.709,10.439-7.709,10.439h-1.291c0,0,4.246-5.754,7.709-10.439H120.98z"/>
		<path fill="#195BA1" d="M122.066,2.845c-2.941,3.982-5.805,7.861-5.805,7.861h-1.291c0,0,3.766-5.1,7.096-9.611V2.845z"/>
		<path fill="#195BA1" d="M122.066,6.894c-1.631,2.205-2.816,3.813-2.816,3.813h-1.291c0,0,1.852-2.51,4.107-5.563V6.894z"/>
		<path fill="#195BA1" d="M122.066,10.708c-0.352,0-1.117,0-1.117,0s0.426-0.577,1.117-1.515V10.708z"/>
		<path fill="#195BA1" d="M34.409,0.267c-0.87,1.178-1.79,2.422-2.679,3.625v-1.75c0.468-0.633,0.934-1.264,1.386-1.875H34.409z"/>
		<path fill="#195BA1" d="M37.398,0.267c-1.938,2.623-4.12,5.58-5.667,7.676v-1.75c1.352-1.831,2.933-3.973,4.376-5.926H37.398z"/>
		<path fill="#195BA1" d="M40.39,0.267c-3.463,4.686-7.71,10.439-7.71,10.439s-0.565,0-0.949,0v-0.466
			c1.081-1.461,4.493-6.084,7.366-9.974H40.39L40.39,0.267z"/>
		<path fill="#195BA1" d="M43.378,0.267c-3.463,4.686-7.71,10.439-7.71,10.439h-1.292c0,0,4.248-5.754,7.711-10.439H43.378z"/>
		<path fill="#195BA1" d="M46.365,0.267c-3.462,4.686-7.71,10.439-7.71,10.439h-1.29c0,0,4.247-5.754,7.71-10.439H46.365z"/>
		<path fill="#195BA1" d="M49.355,0.267c-3.462,4.686-7.709,10.439-7.709,10.439h-1.291c0,0,4.247-5.754,7.709-10.439H49.355z"/>
		<path fill="#195BA1" d="M52.344,0.267c-3.462,4.686-7.71,10.439-7.71,10.439h-1.291c0,0,4.247-5.754,7.709-10.439H52.344z"/>
		<path fill="#195BA1" d="M55.334,0.267c-3.462,4.686-7.71,10.439-7.71,10.439h-1.291c0,0,4.247-5.754,7.709-10.439H55.334z"/>
		<path fill="#195BA1" d="M58.323,0.267c-3.462,4.686-7.71,10.439-7.71,10.439h-1.291c0,0,4.248-5.754,7.71-10.439H58.323z"/>
		<path fill="#195BA1" d="M61.313,0.267c-3.462,4.686-7.71,10.439-7.71,10.439h-1.291c0,0,4.247-5.754,7.709-10.439H61.313z"/>
		<path fill="#195BA1" d="M64.302,0.267c-3.463,4.686-7.711,10.439-7.711,10.439H55.3c0,0,4.248-5.754,7.71-10.439H64.302z"/>
		<path fill="#195BA1" d="M67.292,0.267c-3.463,4.686-7.711,10.439-7.711,10.439H58.29c0,0,4.248-5.754,7.71-10.439H67.292z"/>
		<path fill="#195BA1" d="M70.279,0.267c-3.463,4.686-7.71,10.439-7.71,10.439h-1.29c0,0,4.248-5.754,7.71-10.439H70.279z"/>
		<path fill="#195BA1" d="M73.269,0.267c-3.463,4.686-7.71,10.439-7.71,10.439h-1.293c0,0,4.247-5.754,7.71-10.439H73.269z"/>
		<path fill="#195BA1" d="M76.257,0.267c-3.463,4.686-7.71,10.439-7.71,10.439h-1.291c0,0,4.247-5.754,7.71-10.439H76.257z"/>
		<path fill="#195BA1" d="M79.247,0.267c-3.463,4.686-7.709,10.439-7.709,10.439h-1.294c0,0,4.247-5.754,7.71-10.439H79.247z"/>
		<path fill="#195BA1" d="M82.236,0.267c-3.463,4.686-7.709,10.439-7.709,10.439h-1.291c0,0,4.246-5.754,7.709-10.439H82.236z"/>
		<path fill="#195BA1" d="M85.226,0.267c-3.463,4.686-7.709,10.439-7.709,10.439h-1.293c0,0,4.246-5.754,7.709-10.439H85.226z"/>
		<path fill="#195BA1" d="M88.214,0.267c-3.461,4.686-7.709,10.439-7.709,10.439h-1.291c0,0,4.246-5.754,7.709-10.439H88.214z"/>
	</g>
	<path fill="#195BA1" d="M13.519,11.756c17.949,0,149,0,149,0v2.577c0,0-131.051,0-149,0V11.756z"/>
	<path fill="#195BA1" d="M162.693,0.267c0,5.855,0,13.932,0,13.932h-38.631c0,0,0-8.074,0-13.932H162.693z"/>
	<polygon fill="#195BA1" points="30.228,10.836 30.228,0.25 23.291,0.25 13.519,10.836 	"/>
	<g>
		<path fill="#195BA1" d="M1710.558,0.109c3.463,4.687,7.711,10.438,7.711,10.438h1.293c0,0-4.248-5.752-7.711-10.438H1710.558z"/>
		<path fill="#195BA1" d="M1707.57,0.109c3.463,4.687,7.711,10.438,7.711,10.438h1.291c0,0-4.248-5.752-7.711-10.438H1707.57z"/>
		<path fill="#195BA1" d="M1704.58,0.109c3.463,4.687,7.711,10.438,7.711,10.438h1.293c0,0-4.248-5.752-7.711-10.438H1704.58z"/>
		<path fill="#195BA1" d="M1701.591,0.109c3.465,4.687,7.713,10.438,7.713,10.438h1.291c0,0-4.246-5.752-7.713-10.438H1701.591z"/>
		<path fill="#195BA1" d="M1698.601,0.109c3.463,4.687,7.711,10.438,7.711,10.438h1.293c0,0-4.248-5.752-7.711-10.438H1698.601z"/>
		<path fill="#195BA1" d="M1695.613,0.109c3.463,4.687,7.711,10.438,7.711,10.438h1.291c0,0-4.248-5.752-7.711-10.438H1695.613z"/>
		<path fill="#195BA1" d="M1692.626,0.109c3.461,4.687,7.709,10.438,7.709,10.438h1.291c0,0-4.248-5.752-7.711-10.438H1692.626z"/>
		<path fill="#195BA1" d="M1689.636,0.109c3.463,4.687,7.709,10.438,7.709,10.438h1.291c0,0-4.246-5.752-7.709-10.438H1689.636z"/>
		<path fill="#195BA1" d="M1686.648,0.109c3.461,4.687,7.709,10.438,7.709,10.438h1.291c0,0-4.246-5.752-7.709-10.438H1686.648z"/>
		<path fill="#195BA1" d="M1683.658,0.109c3.461,4.687,7.709,10.438,7.709,10.438h1.291c0,0-4.246-5.752-7.709-10.438H1683.658z"/>
		<path fill="#195BA1" d="M1680.669,0.109c3.461,4.687,7.709,10.438,7.709,10.438h1.291c0,0-4.246-5.752-7.709-10.438H1680.669z"/>
		<path fill="#195BA1" d="M1679.583,2.687c2.941,3.981,5.809,7.86,5.809,7.86h1.291c0,0-3.77-5.1-7.1-9.608V2.687z"/>
		<path fill="#195BA1" d="M1679.583,6.734c1.631,2.207,2.816,3.813,2.816,3.813h1.291c0,0-1.854-2.51-4.107-5.563V6.734z"/>
		<path fill="#195BA1" d="M1679.583,10.547c0.354,0,1.117,0,1.117,0s-0.426-0.577-1.117-1.515V10.547z"/>
		<path fill="#195BA1" d="M1767.24,0.109c0.871,1.177,1.791,2.423,2.68,3.625v-1.75c-0.469-0.633-0.934-1.266-1.387-1.875H1767.24z"
			/>
		<path fill="#195BA1" d="M1764.251,0.109c1.938,2.621,4.121,5.578,5.668,7.675v-1.75c-1.352-1.829-2.934-3.972-4.377-5.925
			H1764.251z"/>
		<path fill="#195BA1" d="M1761.259,0.109c3.465,4.687,7.713,10.438,7.713,10.438s0.563,0,0.947,0v-0.466
			c-1.082-1.461-4.494-6.082-7.365-9.975L1761.259,0.109L1761.259,0.109z"/>
		<path fill="#195BA1" d="M1758.271,0.109c3.463,4.687,7.711,10.438,7.711,10.438h1.291c0,0-4.248-5.752-7.711-10.438H1758.271z"/>
		<path fill="#195BA1" d="M1755.285,0.109c3.461,4.687,7.709,10.438,7.709,10.438h1.291c0,0-4.248-5.752-7.711-10.438H1755.285z"/>
		<path fill="#195BA1" d="M1752.294,0.109c3.463,4.687,7.709,10.438,7.709,10.438h1.291c0,0-4.246-5.752-7.709-10.438H1752.294z"/>
		<path fill="#195BA1" d="M1749.304,0.109c3.463,4.687,7.709,10.438,7.709,10.438h1.293c0,0-4.246-5.752-7.713-10.438H1749.304z"/>
		<path fill="#195BA1" d="M1746.316,0.109c3.461,4.687,7.709,10.438,7.709,10.438h1.291c0,0-4.246-5.752-7.709-10.438H1746.316z"/>
		<path fill="#195BA1" d="M1743.328,0.109c3.461,4.687,7.709,10.438,7.709,10.438h1.291c0,0-4.248-5.752-7.709-10.438H1743.328z"/>
		<path fill="#195BA1" d="M1740.337,0.109c3.461,4.687,7.709,10.438,7.709,10.438h1.291c0,0-4.246-5.752-7.709-10.438H1740.337z"/>
		<path fill="#195BA1" d="M1737.347,0.109c3.463,4.687,7.711,10.438,7.711,10.438h1.291c0,0-4.248-5.752-7.709-10.438H1737.347z"/>
		<path fill="#195BA1" d="M1734.357,0.109c3.463,4.687,7.711,10.438,7.711,10.438h1.291c0,0-4.248-5.752-7.709-10.438H1734.357z"/>
		<path fill="#195BA1" d="M1731.371,0.109c3.463,4.687,7.711,10.438,7.711,10.438h1.289c0,0-4.248-5.752-7.709-10.438H1731.371z"/>
		<path fill="#195BA1" d="M1728.38,0.109c3.463,4.687,7.711,10.438,7.711,10.438h1.293c0,0-4.248-5.752-7.711-10.438H1728.38z"/>
		<path fill="#195BA1" d="M1725.392,0.109c3.463,4.687,7.711,10.438,7.711,10.438h1.291c0,0-4.248-5.752-7.711-10.438H1725.392z"/>
		<path fill="#195BA1" d="M1722.402,0.109c3.463,4.687,7.709,10.438,7.709,10.438h1.295c0,0-4.248-5.752-7.711-10.438H1722.402z"/>
		<path fill="#195BA1" d="M1719.414,0.109c3.463,4.687,7.709,10.438,7.709,10.438h1.291c0,0-4.246-5.752-7.709-10.438H1719.414z"/>
		<path fill="#195BA1" d="M1716.423,0.109c3.463,4.687,7.709,10.438,7.709,10.438h1.293c0,0-4.246-5.752-7.709-10.438H1716.423z"/>
		<path fill="#195BA1" d="M1713.435,0.109c3.461,4.687,7.709,10.438,7.709,10.438h1.291c0,0-4.246-5.752-7.709-10.438H1713.435z"/>
	</g>
	<path fill="#195BA1" d="M1788.13,11.756c-17.945,0-149,0-149,0v2.577c0,0,131.055,0,149,0V11.756z"/>
	<path fill="#195BA1" d="M1638.849-0.248c0,5.856,0,13.933,0,13.933h38.631c0,0,0-8.074,0-13.933H1638.849z"/>
	<polygon fill="#195BA1" points="1771.421,10.677 1771.421,0.089 1778.359,0.089 1788.13,10.677 	"/>
</g>
</svg>
