<?xml version="1.0" encoding="utf-8"?>
<!-- Generator: Adobe Illustrator 16.0.0, SVG Export Plug-In . SVG Version: 6.00 Build 0)  -->
<!DOCTYPE svg PUBLIC "-//W3C//DTD SVG 1.1//EN" "http://www.w3.org/Graphics/SVG/1.1/DTD/svg11.dtd">
<svg version="1.1" id="图层_1" xmlns="http://www.w3.org/2000/svg" xmlns:xlink="http://www.w3.org/1999/xlink" x="0px" y="0px"
	 width="1813px" height="237.803px" viewBox="-6.663 -10.249 1813 237.803" enable-background="new -6.663 -10.249 1813 237.803"
	 xml:space="preserve">
<g id="隔离模式_x5F_复制">
	<g>
		<path fill="#4672FF" d="M0.316,53.538l-0.527,0l-0.024-24.553L13.429,15.21l244.097-0.241c3.063-0.003,5.556,2.5,5.559,5.579
			l0.008,7.941c0.003,2.476,2.008,4.488,4.468,4.486l100.63-0.1c1.334-0.001,2.586,0.519,3.53,1.466l12.986,13.038l-0.373,0.375
			l-12.986-13.038c-0.847-0.845-1.966-1.312-3.157-1.311l-100.632,0.1c-2.752,0.003-4.993-2.246-4.996-5.016l-0.008-7.94
			c-0.002-2.786-2.259-5.051-5.028-5.048L13.649,15.742L0.292,29.206L0.316,53.538L0.316,53.538z"/>
	</g>
	<line fill="none" stroke="#4672FF" stroke-miterlimit="10" x1="-0.217" y1="47.997" x2="894.781" y2="47.113"/>
	<line fill="none" stroke="#4672FF" stroke-width="0.6" stroke-miterlimit="10" x1="0.077" y1="47.997" x2="0.245" y2="217.996"/>
	
		<line fill="none" stroke="#4672FF" stroke-width="0.6" stroke-miterlimit="10" x1="894.781" y1="46.62" x2="894.871" y2="137.158"/>
	
		<line fill="none" stroke="#4672FF" stroke-width="0.6" stroke-miterlimit="10" x1="894.881" y1="148.22" x2="894.949" y2="217.112"/>
	<line fill="none" stroke="#4672FF" stroke-miterlimit="10" x1="-0.84" y1="217.554" x2="894.949" y2="216.67"/>
	
		<rect x="0.16" y="47.555" transform="matrix(-1 9.876806e-004 -9.876806e-004 -1 895.1566 264.6663)" opacity="0.18" fill="#021230" enable-background="new    " width="894.705" height="169.999"/>
	<g>
		<path fill="#4672FF" d="M1801.229,51.758l0.527,0l-0.025-24.553l-13.691-13.748l-244.1,0.241c-3.061,0.003-5.548,2.51-5.545,5.589
			l0.008,7.941c0.003,2.476-1.997,4.492-4.458,4.495l-100.631,0.099c-1.334,0.001-2.586,0.523-3.526,1.472l-12.961,13.064
			l0.373,0.375l12.962-13.064c0.841-0.846,1.961-1.315,3.152-1.316l100.631-0.099c2.752-0.003,4.988-2.256,4.985-5.026l-0.008-7.94
			c-0.003-2.786,2.249-5.055,5.017-5.058l243.877-0.241l13.384,13.437l0.025,24.332H1801.229L1801.229,51.758z"/>
	</g>
	<g>
		<path fill="#4672FF" d="M1801.229,51.758l0.527,0l-0.025-24.553l-13.691-13.748l-244.1,0.241c-3.061,0.003-5.548,2.51-5.545,5.589
			l0.008,7.941c0.003,2.476-1.997,4.492-4.458,4.495l-100.631,0.099c-1.334,0.001-2.586,0.523-3.526,1.472l-12.961,13.064
			l0.373,0.375l12.962-13.064c0.841-0.846,1.961-1.315,3.152-1.316l100.631-0.099c2.752-0.003,4.988-2.256,4.985-5.026l-0.008-7.94
			c-0.003-2.786,2.249-5.055,5.017-5.058l243.877-0.241l13.384,13.437l0.025,24.332H1801.229L1801.229,51.758z"/>
	</g>
	<line fill="none" stroke="#4672FF" stroke-miterlimit="10" x1="1801.75" y1="46.217" x2="906.752" y2="47.101"/>
	
		<line fill="none" stroke="#4672FF" stroke-width="0.6" stroke-miterlimit="10" x1="1801.458" y1="46.217" x2="1801.625" y2="215.776"/>
	
		<line fill="none" stroke="#4672FF" stroke-width="0.6" stroke-miterlimit="10" x1="906.752" y1="46.608" x2="906.841" y2="137.146"/>
	
		<line fill="none" stroke="#4672FF" stroke-width="0.6" stroke-miterlimit="10" x1="906.852" y1="148.208" x2="906.92" y2="217.115"/>
	<line fill="none" stroke="#4672FF" stroke-miterlimit="10" x1="1801.561" y1="215.776" x2="906.563" y2="216.659"/>
	
		<line fill="none" stroke="#4672FF" stroke-width="0.6" stroke-miterlimit="10" x1="894.611" y1="137.159" x2="906.611" y2="137.146"/>
	
		<line fill="none" stroke="#4672FF" stroke-width="0.6" stroke-miterlimit="10" x1="894.622" y1="148.221" x2="906.622" y2="148.208"/>
	<polygon opacity="0.18" fill="#021230" enable-background="new    " points="906.897,47 1801.604,46.217 1801.792,215.436 
		907.085,216.217 	"/>
	
		<rect x="894.876" y="137.152" transform="matrix(-1 9.788591e-004 -9.788591e-004 -1 1801.8618 284.4843)" opacity="0.18" fill="#021230" enable-background="new    " width="11.971" height="11.063"/>
	<g>
		<path fill="#195BA1" d="M90.974,1.067c-3.458,4.689-7.701,10.447-7.701,10.447l-1.293,0.001c0,0,4.243-5.758,7.701-10.447
			L90.974,1.067z"/>
		<path fill="#195BA1" d="M93.962,1.064c-3.458,4.689-7.7,10.447-7.7,10.447l-1.291,0.001c0,0,4.242-5.758,7.7-10.447L93.962,1.064z
			"/>
		<path fill="#195BA1" d="M96.953,1.061c-3.458,4.689-7.7,10.447-7.7,10.447l-1.293,0.001c0,0,4.242-5.758,7.7-10.447L96.953,1.061z
			"/>
		<path fill="#195BA1" d="M99.941,1.058c-3.458,4.689-7.701,10.447-7.701,10.447l-1.291,0.001c0,0,4.243-5.758,7.701-10.447
			L99.941,1.058z"/>
		<path fill="#195BA1" d="M102.931,1.055c-3.458,4.689-7.701,10.447-7.701,10.447l-1.293,0.001c0,0,4.242-5.759,7.701-10.447
			L102.931,1.055z"/>
		<path fill="#195BA1" d="M105.919,1.052c-3.458,4.689-7.7,10.447-7.7,10.447L96.928,11.5c0,0,4.242-5.758,7.7-10.447L105.919,1.052
			z"/>
		<path fill="#195BA1" d="M108.906,1.049c-3.457,4.689-7.698,10.447-7.698,10.447l-1.291,0.001c0,0,4.242-5.758,7.7-10.447
			L108.906,1.049z"/>
		<path fill="#195BA1" d="M111.896,1.046c-3.458,4.689-7.699,10.447-7.699,10.447l-1.291,0.001c0,0,4.241-5.758,7.699-10.447
			L111.896,1.046z"/>
		<path fill="#195BA1" d="M114.884,1.043c-3.457,4.689-7.699,10.447-7.699,10.447l-1.291,0.001c0,0,4.24-5.758,7.699-10.447
			L114.884,1.043z"/>
		<path fill="#195BA1" d="M117.874,1.041c-3.457,4.688-7.698,10.447-7.698,10.447l-1.291,0.001c0,0,4.24-5.758,7.698-10.447
			L117.874,1.041z"/>
		<path fill="#195BA1" d="M120.863,1.037c-3.457,4.689-7.698,10.447-7.698,10.447l-1.291,0.001c0,0,4.24-5.758,7.698-10.447
			L120.863,1.037z"/>
		<path fill="#195BA1" d="M121.952,3.615c-2.938,3.985-5.797,7.867-5.797,7.867l-1.291,0.001c0,0,3.761-5.104,7.087-9.618
			L121.952,3.615z"/>
		<path fill="#195BA1" d="M121.956,7.664c-1.629,2.207-2.812,3.816-2.812,3.816l-1.291,0.001c0,0,1.849-2.512,4.101-5.567
			L121.956,7.664z"/>
		<path fill="#195BA1" d="M121.959,11.477c-0.352,0-1.117,0-1.117,0s0.425-0.577,1.115-1.515L121.959,11.477z"/>
		<path fill="#195BA1" d="M34.292,1.123c-0.869,1.178-1.788,2.423-2.675,3.627L31.615,3c0.467-0.633,0.932-1.265,1.384-1.876
			L34.292,1.123z"/>
		<path fill="#195BA1" d="M37.281,1.12c-1.935,2.625-4.115,5.584-5.659,7.681l-0.002-1.75c1.35-1.833,2.929-3.975,4.37-5.93
			L37.281,1.12z"/>
		<path fill="#195BA1" d="M40.273,1.117c-3.458,4.689-7.7,10.447-7.7,10.447s-0.564,0-0.948,0.001l-0.001-0.466
			c1.079-1.462,4.487-6.088,7.356-9.981L40.273,1.117L40.273,1.117z"/>
		<path fill="#195BA1" d="M43.261,1.114c-3.459,4.688-7.7,10.447-7.7,10.447l-1.292,0.001c0,0,4.242-5.758,7.701-10.447
			L43.261,1.114z"/>
		<path fill="#195BA1" d="M46.248,1.111c-3.458,4.689-7.699,10.447-7.699,10.447l-1.29,0.001c0,0,4.241-5.758,7.699-10.447
			L46.248,1.111z"/>
		<path fill="#195BA1" d="M49.238,1.108c-3.458,4.689-7.698,10.447-7.698,10.447l-1.291,0c0,0,4.241-5.758,7.698-10.447
			L49.238,1.108z"/>
		<path fill="#195BA1" d="M52.227,1.105c-3.457,4.689-7.7,10.447-7.7,10.447l-1.291,0.001c0,0,4.242-5.758,7.699-10.447
			L52.227,1.105z"/>
		<path fill="#195BA1" d="M55.217,1.102c-3.458,4.689-7.699,10.447-7.699,10.447l-1.291,0.001c0,0,4.241-5.758,7.698-10.447
			L55.217,1.102z"/>
		<path fill="#195BA1" d="M58.206,1.1c-3.458,4.688-7.699,10.447-7.699,10.447l-1.291,0.001c0,0,4.242-5.758,7.699-10.447
			L58.206,1.1z"/>
		<path fill="#195BA1" d="M61.196,1.096c-3.458,4.689-7.7,10.447-7.7,10.447l-1.291,0.001c0,0,4.242-5.758,7.699-10.447
			L61.196,1.096z"/>
		<path fill="#195BA1" d="M64.185,1.094c-3.458,4.688-7.701,10.447-7.701,10.447l-1.291,0.001c0,0,4.243-5.758,7.7-10.447
			L64.185,1.094z"/>
		<path fill="#195BA1" d="M67.175,1.09c-3.458,4.689-7.7,10.447-7.7,10.447l-1.291,0.001c0,0,4.242-5.758,7.699-10.447L67.175,1.09z
			"/>
		<path fill="#195BA1" d="M70.162,1.087c-3.458,4.689-7.699,10.447-7.699,10.447l-1.29,0.001c0,0,4.242-5.758,7.699-10.447
			L70.162,1.087z"/>
		<path fill="#195BA1" d="M73.152,1.084c-3.458,4.689-7.7,10.447-7.7,10.447l-1.293,0.001c0,0,4.242-5.758,7.7-10.447L73.152,1.084z
			"/>
		<path fill="#195BA1" d="M76.14,1.082c-3.458,4.689-7.7,10.447-7.7,10.447l-1.291,0.001c0,0,4.242-5.758,7.7-10.447L76.14,1.082z"
			/>
		<path fill="#195BA1" d="M79.13,1.079c-3.458,4.689-7.698,10.447-7.698,10.447l-1.294,0.001c0,0,4.241-5.758,7.699-10.447
			L79.13,1.079z"/>
		<path fill="#195BA1" d="M82.119,1.076c-3.458,4.689-7.698,10.447-7.698,10.447l-1.291,0.001c0,0,4.24-5.758,7.698-10.447
			L82.119,1.076z"/>
		<path fill="#195BA1" d="M85.109,1.073C81.651,5.762,77.41,11.52,77.41,11.52l-1.293,0.001c0,0,4.241-5.758,7.699-10.447
			L85.109,1.073z"/>
		<path fill="#195BA1" d="M88.097,1.07c-3.456,4.689-7.699,10.447-7.699,10.447l-1.291,0.001c0,0,4.241-5.759,7.699-10.447
			L88.097,1.07z"/>
	</g>
	<path fill="#195BA1" d="M13.414,12.633c17.949-0.018,149-0.147,149-0.147l0.002,2.577c0,0-131.051,0.129-149,0.147L13.414,12.633z"
		/>
	<path fill="#195BA1" d="M162.576,0.996c0.006,5.855,0.014,13.932,0.014,13.932l-38.631,0.039c0,0-0.008-8.074-0.014-13.932
		L162.576,0.996z"/>
	<polygon fill="#195BA1" points="30.122,11.696 30.111,1.109 23.174,1.116 13.413,11.713 	"/>
	<g>
		<path fill="#195BA1" d="M1710.44-0.691c3.468,4.683,7.722,10.431,7.722,10.431l1.293-0.001c0,0-4.254-5.748-7.722-10.431
			L1710.44-0.691z"/>
		<path fill="#195BA1" d="M1707.452-0.688c3.468,4.683,7.722,10.431,7.722,10.431l1.291-0.001c0,0-4.254-5.748-7.722-10.431
			L1707.452-0.688z"/>
		<path fill="#195BA1" d="M1704.461-0.685c3.468,4.683,7.722,10.431,7.722,10.431l1.293-0.001c0,0-4.254-5.748-7.722-10.431
			L1704.461-0.685z"/>
		<path fill="#195BA1" d="M1701.473-0.682c3.47,4.683,7.724,10.431,7.724,10.431l1.291-0.001c0,0-4.252-5.748-7.724-10.431
			L1701.473-0.682z"/>
		<path fill="#195BA1" d="M1698.483-0.679c3.468,4.684,7.722,10.431,7.722,10.431l1.293-0.001c0,0-4.254-5.748-7.722-10.431
			L1698.483-0.679z"/>
		<path fill="#195BA1" d="M1695.495-0.676c3.468,4.683,7.722,10.431,7.722,10.431l1.291-0.001c0,0-4.254-5.748-7.722-10.431
			L1695.495-0.676z"/>
		<path fill="#195BA1" d="M1692.508-0.673c3.466,4.684,7.72,10.431,7.72,10.431l1.291-0.001c0,0-4.254-5.748-7.722-10.431
			L1692.508-0.673z"/>
		<path fill="#195BA1" d="M1689.518-0.67c3.468,4.683,7.72,10.431,7.72,10.431l1.291-0.001c0,0-4.252-5.748-7.72-10.431
			L1689.518-0.67z"/>
		<path fill="#195BA1" d="M1686.53-0.667c3.466,4.684,7.72,10.431,7.72,10.431l1.291,0c0,0-4.252-5.748-7.72-10.431L1686.53-0.667z"
			/>
		<path fill="#195BA1" d="M1683.54-0.664c3.466,4.683,7.72,10.431,7.72,10.431l1.291-0.001c0,0-4.252-5.748-7.72-10.431
			L1683.54-0.664z"/>
		<path fill="#195BA1" d="M1680.551-0.661c3.466,4.683,7.72,10.431,7.72,10.431l1.291-0.001c0,0-4.252-5.748-7.72-10.431
			L1680.551-0.661z"/>
		<path fill="#195BA1" d="M1679.468,1.917c2.945,3.979,5.816,7.855,5.816,7.855l1.291-0.001c0,0-3.774-5.096-7.109-9.602
			L1679.468,1.917z"/>
		<path fill="#195BA1" d="M1679.472,5.964c1.633,2.206,2.82,3.811,2.82,3.811l1.291-0.001c0,0-1.855-2.508-4.113-5.56
			L1679.472,5.964z"/>
		<path fill="#195BA1" d="M1679.476,9.778c0.354,0,1.117,0,1.117,0s-0.426-0.577-1.118-1.514L1679.476,9.778z"/>
		<path fill="#195BA1" d="M1767.122-0.747c0.872,1.176,1.794,2.421,2.684,3.623l-0.002-1.75c-0.47-0.632-0.935-1.265-1.389-1.874
			L1767.122-0.747z"/>
		<path fill="#195BA1" d="M1764.133-0.744c1.94,2.619,4.127,5.575,5.676,7.669l-0.002-1.75c-1.354-1.828-2.938-3.969-4.383-5.92
			L1764.133-0.744z"/>
		<path fill="#195BA1" d="M1761.141-0.741c3.47,4.683,7.724,10.431,7.724,10.431s0.563,0,0.947-0.001V9.223
			c-1.084-1.459-4.501-6.078-7.376-9.967L1761.141-0.741L1761.141-0.741z"/>
		<path fill="#195BA1" d="M1758.153-0.738c3.468,4.684,7.722,10.431,7.722,10.431l1.291-0.001c0,0-4.254-5.748-7.722-10.431
			L1758.153-0.738z"/>
		<path fill="#195BA1" d="M1755.167-0.735c3.466,4.683,7.72,10.431,7.72,10.431l1.291-0.001c0,0-4.254-5.748-7.722-10.431
			L1755.167-0.735z"/>
		<path fill="#195BA1" d="M1752.176-0.732c3.468,4.684,7.72,10.431,7.72,10.431l1.291-0.001c0,0-4.252-5.748-7.72-10.431
			L1752.176-0.732z"/>
		<path fill="#195BA1" d="M1749.186-0.729c3.468,4.683,7.72,10.431,7.72,10.431l1.293-0.001c0,0-4.252-5.748-7.724-10.431
			L1749.186-0.729z"/>
		<path fill="#195BA1" d="M1746.198-0.726c3.466,4.683,7.72,10.431,7.72,10.431l1.291-0.001c0,0-4.252-5.748-7.72-10.431
			L1746.198-0.726z"/>
		<path fill="#195BA1" d="M1743.209-0.723c3.466,4.683,7.72,10.431,7.72,10.431l1.291-0.001c0,0-4.254-5.748-7.72-10.431
			L1743.209-0.723z"/>
		<path fill="#195BA1" d="M1740.219-0.72c3.466,4.683,7.72,10.431,7.72,10.431l1.291-0.001c0,0-4.252-5.748-7.72-10.431
			L1740.219-0.72z"/>
		<path fill="#195BA1" d="M1737.229-0.717c3.468,4.683,7.722,10.431,7.722,10.431l1.291-0.001c0,0-4.254-5.748-7.72-10.431
			L1737.229-0.717z"/>
		<path fill="#195BA1" d="M1734.239-0.714c3.468,4.683,7.722,10.431,7.722,10.431l1.291-0.001c0,0-4.254-5.748-7.72-10.431
			L1734.239-0.714z"/>
		<path fill="#195BA1" d="M1731.252-0.711c3.468,4.683,7.722,10.431,7.722,10.431l1.289-0.001c0,0-4.254-5.748-7.72-10.431
			L1731.252-0.711z"/>
		<path fill="#195BA1" d="M1728.262-0.708c3.468,4.683,7.722,10.431,7.722,10.431l1.293-0.001c0,0-4.254-5.747-7.722-10.431
			L1728.262-0.708z"/>
		<path fill="#195BA1" d="M1725.274-0.706c3.468,4.683,7.722,10.431,7.722,10.431l1.291-0.001c0,0-4.254-5.748-7.722-10.431
			L1725.274-0.706z"/>
		<path fill="#195BA1" d="M1722.284-0.703c3.468,4.683,7.72,10.431,7.72,10.431l1.295-0.001c0,0-4.254-5.748-7.722-10.431
			L1722.284-0.703z"/>
		<path fill="#195BA1" d="M1719.295-0.7c3.468,4.683,7.72,10.431,7.72,10.431l1.291-0.001c0,0-4.252-5.748-7.72-10.431L1719.295-0.7
			z"/>
		<path fill="#195BA1" d="M1716.305-0.697c3.468,4.683,7.72,10.431,7.72,10.431l1.293-0.001c0,0-4.252-5.748-7.72-10.431
			L1716.305-0.697z"/>
		<path fill="#195BA1" d="M1713.317-0.694c3.466,4.684,7.72,10.431,7.72,10.431l1.291-0.001c0,0-4.252-5.748-7.72-10.431
			L1713.317-0.694z"/>
	</g>
	<path fill="#195BA1" d="M1788.023,10.88c-17.945,0.018-148.999,0.147-148.999,0.147l0.002,2.577c0,0,131.055-0.129,149-0.147
		L1788.023,10.88z"/>
	<path fill="#195BA1" d="M1638.731-0.977c0.006,5.856,0.014,13.933,0.014,13.933l38.631-0.038c0,0-0.008-8.074-0.014-13.933
		L1638.731-0.977z"/>
	<polygon fill="#195BA1" points="1771.314,9.817 1771.303,-0.771 1778.241,-0.777 1788.023,9.801 	"/>
</g>
</svg>
