<?xml version="1.0" encoding="utf-8"?>
<!-- Generator: Adobe Illustrator 16.0.0, SVG Export Plug-In . SVG Version: 6.00 Build 0)  -->
<!DOCTYPE svg PUBLIC "-//W3C//DTD SVG 1.1//EN" "http://www.w3.org/Graphics/SVG/1.1/DTD/svg11.dtd">
<svg version="1.1" id="隔离模式" xmlns="http://www.w3.org/2000/svg" xmlns:xlink="http://www.w3.org/1999/xlink" x="0px"
	 y="0px" width="2000px" height="11.789px" viewBox="0 0 2000 11.789" enable-background="new 0 0 2000 11.789"
	 xml:space="preserve">
<g>
	<g>
		<rect y="4.959" fill="#009CFF" width="4.158" height="0.422"/>
	</g>
	<g>
		<rect x="10.395" y="4.959" fill="#009CFF" width="4.158" height="0.422"/>
	</g>
	<g>
		<rect x="20.79" y="4.959" fill="#009CFF" width="4.157" height="0.422"/>
	</g>
	<g>
		<rect x="33.264" y="4.959" fill="#009CFF" width="4.158" height="0.422"/>
	</g>
	<g>
		<rect x="43.659" y="4.959" fill="#009CFF" width="4.157" height="0.422"/>
	</g>
	<g>
		<rect x="54.054" y="4.959" fill="#009CFF" width="4.158" height="0.422"/>
	</g>
	<g>
		<rect x="64.449" y="4.959" fill="#009CFF" width="4.158" height="0.422"/>
	</g>
	<g>
		<rect x="76.923" y="4.959" fill="#009CFF" width="4.158" height="0.422"/>
	</g>
	<g>
		<rect x="87.318" y="4.959" fill="#009CFF" width="4.157" height="0.422"/>
	</g>
	<g>
		<rect x="97.713" y="4.959" fill="#009CFF" width="4.159" height="0.422"/>
	</g>
	<g>
		<rect x="108.107" y="4.959" fill="#009CFF" width="4.159" height="0.422"/>
	</g>
	<g>
		<rect x="120.582" y="4.959" fill="#009CFF" width="4.158" height="0.422"/>
	</g>
	<g>
		<rect x="130.977" y="4.959" fill="#009CFF" width="4.158" height="0.422"/>
	</g>
	<g>
		<rect x="141.372" y="4.959" fill="#009CFF" width="4.158" height="0.422"/>
	</g>
	<g>
		<rect x="151.767" y="4.959" fill="#009CFF" width="4.159" height="0.422"/>
	</g>
	<g>
		<rect x="166.32" y="4.959" fill="#009CFF" width="4.158" height="0.422"/>
	</g>
	<g>
		<rect x="175.551" y="5.053" fill="#009CFF" width="6.237" height="0.421"/>
	</g>
	<g>
		<rect x="187.11" y="4.959" fill="#009CFF" width="4.158" height="0.422"/>
	</g>
	<g>
		<rect x="195.426" y="4.959" fill="#009CFF" width="4.159" height="0.422"/>
	</g>
	<g>
		<rect x="208.815" y="5.053" fill="#009CFF" width="4.157" height="1.263"/>
	</g>
	<g>
		<rect x="219.21" y="4.421" fill="#009CFF" width="6.237" height="1.895"/>
	</g>
	<g>
		<rect x="230.77" y="4.959" fill="#009CFF" width="4.157" height="0.422"/>
	</g>
	<g>
		<rect x="241.165" y="4.959" fill="#009CFF" width="4.158" height="0.422"/>
	</g>
	<g>
		<rect x="253.639" y="4.959" fill="#009CFF" width="4.158" height="0.422"/>
	</g>
	<g>
		<rect x="262.869" y="3.368" fill="#009CFF" width="6.237" height="4"/>
	</g>
	<g>
		<rect x="275.343" y="2.736" fill="#009CFF" width="4.158" height="5.685"/>
	</g>
	<g>
		<rect x="285.738" y="1.895" fill="#009CFF" width="4.158" height="7.789"/>
	</g>
	<g>
		<rect x="296.133" fill="#009CFF" width="4.158" height="11.789"/>
	</g>
	<g>
		<rect x="1420.875" y="1.895" fill="#009CFF" width="4.158" height="7.789"/>
	</g>
	<g>
		<rect x="1433.349" y="-0.211" fill="#009CFF" width="4.157" height="11.789"/>
	</g>
	<g>
		<rect x="308.607" y="2.947" fill="#009CFF" width="4.158" height="4.421"/>
	</g>
	<g>
		<rect x="319.002" y="4" fill="#009CFF" width="4.158" height="2.736"/>
	</g>
	<g>
		<rect x="328.482" y="4.959" fill="#009CFF" width="4.158" height="0.422"/>
	</g>
	<g>
		<rect x="340.957" y="4.959" fill="#009CFF" width="4.157" height="0.422"/>
	</g>
	<g>
		<rect x="351.352" y="4.959" fill="#009CFF" width="4.158" height="0.422"/>
	</g>
	<g>
		<rect x="361.746" y="4.959" fill="#009CFF" width="4.158" height="0.422"/>
	</g>
	<g>
		<rect x="373.057" y="4" fill="#009CFF" width="4.157" height="2.525"/>
	</g>
	<g>
		<rect x="385.531" y="3.157" fill="#009CFF" width="4.158" height="4"/>
	</g>
	<g>
		<rect x="395.011" y="4.959" fill="#009CFF" width="4.158" height="0.422"/>
	</g>
	<g>
		<rect x="407.484" y="4.959" fill="#009CFF" width="4.158" height="0.422"/>
	</g>
	<g>
		<rect x="418.794" y="5.053" fill="#009CFF" width="6.237" height="0.421"/>
	</g>
	<g>
		<rect x="430.354" y="4.959" fill="#009CFF" width="4.158" height="0.422"/>
	</g>
	<g>
		<rect x="440.749" y="4.959" fill="#009CFF" width="4.158" height="0.422"/>
	</g>
	<g>
		<rect x="451.144" y="4.959" fill="#009CFF" width="4.158" height="0.422"/>
	</g>
	<g>
		<rect x="460.374" y="3.157" fill="#009CFF" width="4.158" height="4"/>
	</g>
	<g>
		<rect x="472.848" y="3.578" fill="#009CFF" width="6.237" height="2.526"/>
	</g>
	<g>
		<rect x="484.408" y="4.959" fill="#009CFF" width="4.157" height="0.422"/>
	</g>
	<g>
		<rect x="494.803" y="4.959" fill="#009CFF" width="4.158" height="0.422"/>
	</g>
	<g>
		<rect x="506.112" y="5.053" fill="#009CFF" width="6.238" height="0.421"/>
	</g>
	<g>
		<rect x="517.672" y="4.959" fill="#009CFF" width="4.158" height="0.422"/>
	</g>
	<g>
		<rect x="528.067" y="4.959" fill="#009CFF" width="4.157" height="0.422"/>
	</g>
	<g>
		<rect x="538.462" y="4.959" fill="#009CFF" width="4.158" height="0.422"/>
	</g>
	<g>
		<rect x="547.692" y="5.263" fill="#009CFF" width="8.316" height="0.211"/>
	</g>
	<g>
		<rect x="561.331" y="4.959" fill="#009CFF" width="4.158" height="0.422"/>
	</g>
	<g>
		<rect x="571.726" y="4.959" fill="#009CFF" width="4.158" height="0.422"/>
	</g>
	<g>
		<rect x="583.036" y="5.053" fill="#009CFF" width="6.237" height="0.421"/>
	</g>
	<g>
		<rect x="593.431" y="3.157" fill="#009CFF" width="6.237" height="4.211"/>
	</g>
	<g>
		<rect x="605.905" fill="#009CFF" width="4.159" height="9.474"/>
	</g>
	<g>
		<rect x="616.3" y="2.736" fill="#009CFF" width="4.158" height="4.842"/>
	</g>
	<g>
		<rect x="627.859" y="4.959" fill="#009CFF" width="4.158" height="0.422"/>
	</g>
	<g>
		<rect x="639.169" y="5.053" fill="#009CFF" width="6.236" height="0.421"/>
	</g>
	<g>
		<rect x="650.728" y="4.959" fill="#009CFF" width="4.159" height="0.422"/>
	</g>
	<g>
		<rect x="659.044" y="4.959" fill="#009CFF" width="4.158" height="0.422"/>
	</g>
	<g>
		<rect x="671.519" y="4.959" fill="#009CFF" width="4.157" height="0.422"/>
	</g>
	<g>
		<rect x="682.828" y="5.053" fill="#009CFF" width="6.236" height="0.421"/>
	</g>
	<g>
		<rect x="694.387" y="4.959" fill="#009CFF" width="4.158" height="0.422"/>
	</g>
	<g>
		<rect x="704.782" y="4.959" fill="#009CFF" width="4.158" height="0.422"/>
	</g>
	<g>
		<rect x="715.177" y="4.959" fill="#009CFF" width="4.159" height="0.422"/>
	</g>
	<g>
		<rect x="726.487" y="5.053" fill="#009CFF" width="6.237" height="0.421"/>
	</g>
	<g>
		<rect x="738.047" y="4.959" fill="#009CFF" width="4.157" height="0.422"/>
	</g>
	<g>
		<rect x="748.441" y="4.959" fill="#009CFF" width="4.158" height="0.422"/>
	</g>
	<g>
		<rect x="758.836" y="4.959" fill="#009CFF" width="4.158" height="0.422"/>
	</g>
	<g>
		<rect x="770.146" y="5.053" fill="#009CFF" width="6.237" height="0.421"/>
	</g>
	<g>
		<rect x="781.706" y="4.959" fill="#009CFF" width="4.157" height="0.422"/>
	</g>
	<g>
		<rect x="793.015" y="5.053" fill="#009CFF" width="6.237" height="0.421"/>
	</g>
	<g>
		<rect x="803.41" y="3.578" fill="#009CFF" width="4.159" height="1.896"/>
	</g>
	<g>
		<rect x="813.805" y="3.578" fill="#009CFF" width="6.237" height="4.422"/>
	</g>
	<g>
		<rect x="826.279" y="2.525" fill="#009CFF" width="4.158" height="6.948"/>
	</g>
	<g>
		<rect x="836.674" y="1.053" fill="#009CFF" width="4.158" height="6.104"/>
	</g>
	<g>
		<rect x="847.069" y="3.578" fill="#009CFF" width="6.237" height="2.947"/>
	</g>
	<g>
		<rect x="860.708" y="4.959" fill="#009CFF" width="4.158" height="0.422"/>
	</g>
	<g>
		<rect x="871.103" y="4.959" fill="#009CFF" width="4.158" height="0.422"/>
	</g>
	<g>
		<rect x="881.498" y="4.959" fill="#009CFF" width="4.158" height="0.422"/>
	</g>
	<g>
		<rect x="891.893" y="4.959" fill="#009CFF" width="4.158" height="0.422"/>
	</g>
	<g>
		<rect x="904.367" y="4.959" fill="#009CFF" width="4.159" height="0.422"/>
	</g>
	<g>
		<rect x="915.676" y="5.053" fill="#009CFF" width="6.237" height="0.421"/>
	</g>
	<g>
		<rect x="925.157" y="4.959" fill="#009CFF" width="4.157" height="0.422"/>
	</g>
	<g>
		<rect x="935.552" y="4.959" fill="#009CFF" width="4.158" height="0.422"/>
	</g>
	<g>
		<rect x="948.026" y="4.959" fill="#009CFF" width="4.158" height="0.422"/>
	</g>
	<g>
		<rect x="960.5" y="4.959" fill="#009CFF" width="4.158" height="0.422"/>
	</g>
	<g>
		<rect x="968.815" y="4.959" fill="#009CFF" width="4.159" height="0.422"/>
	</g>
	<g>
		<rect x="979.211" y="4.959" fill="#009CFF" width="4.158" height="0.422"/>
	</g>
	<g>
		<rect x="991.685" y="4.959" fill="#009CFF" width="4.158" height="0.422"/>
	</g>
	<g>
		<rect x="1002.994" y="5.053" fill="#009CFF" width="6.237" height="0.421"/>
	</g>
	<g>
		<rect x="1013.39" y="5.053" fill="#009CFF" width="6.237" height="0.421"/>
	</g>
	<g>
		<rect x="1024.949" y="4.959" fill="#009CFF" width="4.158" height="0.422"/>
	</g>
	<g>
		<rect x="1037.422" y="4.959" fill="#009CFF" width="4.158" height="0.422"/>
	</g>
	<g>
		<rect x="1047.818" y="4.959" fill="#009CFF" width="4.158" height="0.422"/>
	</g>
	<g>
		<rect x="1057.049" y="4.421" fill="#009CFF" width="6.237" height="1.053"/>
	</g>
	<g>
		<rect x="1068.607" y="4.959" fill="#009CFF" width="4.159" height="0.422"/>
	</g>
	<g>
		<rect x="1079.918" y="4.21" fill="#009CFF" width="4.158" height="1.474"/>
	</g>
	<g>
		<rect x="1091.477" y="4.959" fill="#009CFF" width="4.158" height="0.422"/>
	</g>
	<g>
		<rect x="1101.873" y="4.959" fill="#009CFF" width="4.157" height="0.422"/>
	</g>
	<g>
		<rect x="1112.269" y="4.959" fill="#009CFF" width="4.157" height="0.422"/>
	</g>
	<g>
		<rect x="1124.741" y="4.959" fill="#009CFF" width="4.157" height="0.422"/>
	</g>
	<g>
		<rect x="1133.973" y="4.421" fill="#009CFF" width="4.158" height="2.947"/>
	</g>
	<g>
		<rect x="1144.365" fill="#009CFF" width="6.238" height="10.104"/>
	</g>
	<g>
		<rect x="1156.841" y="1.895" fill="#009CFF" width="4.159" height="5.895"/>
	</g>
	<g>
		<rect x="1443.744" fill="#009CFF" width="4.157" height="10.104"/>
	</g>
	<g>
		<rect x="1454.138" y="1.895" fill="#009CFF" width="4.158" height="5.895"/>
	</g>
	<g>
		<rect x="1168.399" y="4.959" fill="#009CFF" width="4.159" height="0.422"/>
	</g>
	<g>
		<rect x="1178.795" y="4.959" fill="#009CFF" width="4.159" height="0.422"/>
	</g>
	<g>
		<rect x="1189.189" y="4.959" fill="#009CFF" width="4.159" height="0.422"/>
	</g>
	<g>
		<rect x="1199.585" y="4.959" fill="#009CFF" width="4.158" height="0.422"/>
	</g>
	<g>
		<rect x="1212.974" y="5.053" fill="#009CFF" width="6.238" height="0.421"/>
	</g>
	<g>
		<rect x="1223.369" y="5.053" fill="#009CFF" width="6.236" height="0.421"/>
	</g>
	<g>
		<rect x="1234.928" y="4.959" fill="#009CFF" width="4.158" height="0.422"/>
	</g>
	<g>
		<rect x="1245.324" y="4.959" fill="#009CFF" width="4.156" height="0.422"/>
	</g>
	<g>
		<rect x="1257.797" y="4.959" fill="#009CFF" width="4.158" height="0.422"/>
	</g>
	<g>
		<rect x="1268.192" y="4.959" fill="#009CFF" width="4.157" height="0.422"/>
	</g>
	<g>
		<rect x="1278.587" y="4.959" fill="#009CFF" width="4.16" height="0.422"/>
	</g>
	<g>
		<rect x="1288.982" y="4.959" fill="#009CFF" width="4.156" height="0.422"/>
	</g>
	<g>
		<rect x="1301.456" y="4.959" fill="#009CFF" width="4.159" height="0.422"/>
	</g>
	<g>
		<rect x="1311.851" y="4.959" fill="#009CFF" width="4.159" height="0.422"/>
	</g>
	<g>
		<rect x="1322.248" y="4.959" fill="#009CFF" width="4.157" height="0.422"/>
	</g>
	<g>
		<rect x="1332.643" y="4.959" fill="#009CFF" width="4.157" height="0.422"/>
	</g>
	<g>
		<rect x="1345.116" y="4.959" fill="#009CFF" width="4.157" height="0.422"/>
	</g>
	<g>
		<rect x="1355.512" y="4.959" fill="#009CFF" width="4.156" height="0.422"/>
	</g>
	<g>
		<rect x="1365.906" y="4.959" fill="#009CFF" width="4.157" height="0.422"/>
	</g>
	<g>
		<rect x="1376.301" y="4.959" fill="#009CFF" width="4.158" height="0.422"/>
	</g>
	<g>
		<rect x="1388.774" y="4.959" fill="#009CFF" width="4.157" height="0.422"/>
	</g>
	<g>
		<rect x="1399.17" y="4.959" fill="#009CFF" width="4.159" height="0.422"/>
	</g>
	<g>
		<rect x="1410.479" y="3.578" fill="#009CFF" width="4.157" height="3.369"/>
	</g>
	<g>
		<rect x="1420.875" y="5.053" fill="#009CFF" width="8.315" height="0.421"/>
	</g>
	<g>
		<rect x="1433.349" y="5.053" fill="#009CFF" width="6.236" height="0.421"/>
	</g>
	<g>
		<rect x="1444.907" y="4.959" fill="#009CFF" width="4.158" height="0.422"/>
	</g>
	<g>
		<rect x="1455.302" y="4.959" fill="#009CFF" width="4.159" height="0.422"/>
	</g>
	<g>
		<rect x="1466.612" y="5.053" fill="#009CFF" width="6.237" height="0.421"/>
	</g>
	<g>
		<rect x="1478.172" y="4.959" fill="#009CFF" width="4.157" height="0.422"/>
	</g>
	<g>
		<rect x="1488.565" y="4.959" fill="#009CFF" width="4.158" height="0.422"/>
	</g>
	<g>
		<rect x="1498.961" y="4.959" fill="#009CFF" width="4.158" height="0.422"/>
	</g>
	<g>
		<rect x="1510.271" y="5.053" fill="#009CFF" width="6.237" height="0.421"/>
	</g>
	<g>
		<rect x="1521.83" y="4.959" fill="#009CFF" width="4.158" height="0.422"/>
	</g>
	<g>
		<rect x="1532.225" y="4.959" fill="#009CFF" width="4.158" height="0.422"/>
	</g>
	<g>
		<rect x="1542.619" y="4.959" fill="#009CFF" width="4.158" height="0.422"/>
	</g>
	<g>
		<rect x="1553.931" y="5.053" fill="#009CFF" width="6.238" height="0.421"/>
	</g>
	<g>
		<rect x="1565.488" y="4.959" fill="#009CFF" width="4.158" height="0.422"/>
	</g>
	<g>
		<rect x="1575.884" y="4.959" fill="#009CFF" width="4.159" height="0.422"/>
	</g>
	<g>
		<rect x="1587.195" y="4.421" fill="#009CFF" width="4.157" height="2.104"/>
	</g>
	<g>
		<rect x="1597.589" y="4" fill="#009CFF" width="6.238" height="2.947"/>
	</g>
	<g>
		<rect x="1610.064" y="4.421" fill="#009CFF" width="4.158" height="1.895"/>
	</g>
	<g>
		<rect x="1619.543" y="4.959" fill="#009CFF" width="4.158" height="0.422"/>
	</g>
	<g>
		<rect x="1630.854" y="5.053" fill="#009CFF" width="6.238" height="0.421"/>
	</g>
	<g>
		<rect x="1641.25" y="5.053" fill="#009CFF" width="8.314" height="0.421"/>
	</g>
	<g>
		<rect x="1654.886" y="4.959" fill="#009CFF" width="4.157" height="0.422"/>
	</g>
	<g>
		<rect x="1665.281" y="4.959" fill="#009CFF" width="4.158" height="0.422"/>
	</g>
	<g>
		<rect x="1675.677" y="4.959" fill="#009CFF" width="4.158" height="0.422"/>
	</g>
	<g>
		<rect x="1688.151" y="4.959" fill="#009CFF" width="4.157" height="0.422"/>
	</g>
	<g>
		<rect x="1698.546" y="4.959" fill="#009CFF" width="4.158" height="0.422"/>
	</g>
	<g>
		<rect x="1708.94" y="4.959" fill="#009CFF" width="4.157" height="0.422"/>
	</g>
	<g>
		<rect x="1719.335" y="4.959" fill="#009CFF" width="4.158" height="0.422"/>
	</g>
	<g>
		<rect x="1731.81" y="4.959" fill="#009CFF" width="4.157" height="0.422"/>
	</g>
	<g>
		<rect x="1742.205" y="4.959" fill="#009CFF" width="4.157" height="0.422"/>
	</g>
	<g>
		<rect x="1752.601" y="4.959" fill="#009CFF" width="4.157" height="0.422"/>
	</g>
	<g>
		<rect x="1762.994" y="4.959" fill="#009CFF" width="4.157" height="0.422"/>
	</g>
	<g>
		<rect x="1775.468" y="4.959" fill="#009CFF" width="4.159" height="0.422"/>
	</g>
	<g>
		<rect x="1785.863" y="4.959" fill="#009CFF" width="4.158" height="0.422"/>
	</g>
	<g>
		<rect x="1796.259" y="4.959" fill="#009CFF" width="4.157" height="0.422"/>
	</g>
	<g>
		<rect x="1806.652" y="4.959" fill="#009CFF" width="4.16" height="0.422"/>
	</g>
	<g>
		<rect x="1819.128" y="4.959" fill="#009CFF" width="4.158" height="0.422"/>
	</g>
	<g>
		<rect x="1830.439" y="0.631" fill="#009CFF" width="4.157" height="8"/>
	</g>
	<g>
		<rect x="1840.833" y="1.895" fill="#009CFF" width="4.158" height="5.263"/>
	</g>
	<g>
		<rect x="1851.229" y="2.525" fill="#009CFF" width="4.157" height="4"/>
	</g>
	<g>
		<rect x="1865.782" y="4" fill="#009CFF" width="4.157" height="2.104"/>
	</g>
	<g>
		<rect x="1875.261" y="4.959" fill="#009CFF" width="4.157" height="0.422"/>
	</g>
	<g>
		<rect x="1885.656" y="4.959" fill="#009CFF" width="4.157" height="0.422"/>
	</g>
	<g>
		<rect x="1896.052" y="4.959" fill="#009CFF" width="4.157" height="0.422"/>
	</g>
	<g>
		<rect x="1908.525" y="4.959" fill="#009CFF" width="4.158" height="0.422"/>
	</g>
	<g>
		<rect x="1918.919" y="4.959" fill="#009CFF" width="4.16" height="0.422"/>
	</g>
	<g>
		<rect x="1929.314" y="4.959" fill="#009CFF" width="4.158" height="0.422"/>
	</g>
	<g>
		<rect x="1939.71" y="4.959" fill="#009CFF" width="4.158" height="0.422"/>
	</g>
	<g>
		<rect x="1952.185" y="4.959" fill="#009CFF" width="4.157" height="0.422"/>
	</g>
	<g>
		<rect x="1963.494" y="3.368" fill="#009CFF" width="4.159" height="3.789"/>
	</g>
	<g>
		<rect x="1971.811" y="2.525" fill="#009CFF" width="4.157" height="5.053"/>
	</g>
	<g>
		<rect x="1983.368" y="4.959" fill="#009CFF" width="4.159" height="0.422"/>
	</g>
	<g>
		<rect x="1995.843" y="4.959" fill="#009CFF" width="4.157" height="0.422"/>
	</g>
</g>
</svg>
