<?xml version="1.0" encoding="utf-8"?>
<!-- Generator: Adobe Illustrator 16.0.0, SVG Export Plug-In . SVG Version: 6.00 Build 0)  -->
<!DOCTYPE svg PUBLIC "-//W3C//DTD SVG 1.1//EN" "http://www.w3.org/Graphics/SVG/1.1/DTD/svg11.dtd">
<svg version="1.1" id="Layer_2" xmlns="http://www.w3.org/2000/svg" xmlns:xlink="http://www.w3.org/1999/xlink" x="0px" y="0px"
	 width="13.274px" height="13.832px" viewBox="0 0 13.274 13.832" enable-background="new 0 0 13.274 13.832" xml:space="preserve">
<g>
	<path fill="#1281BA" d="M13.274,0c-0.332,0-0.997,0-0.997,0s0.378,0.475,0.997,1.246V0z"/>
	<path fill="#1281BA" d="M13.274,3.188C11.798,1.34,10.725,0,10.725,0H9.544c0,0,1.681,2.1,3.73,4.663V3.188z"/>
	<path fill="#1281BA" d="M13.274,6.604C10.595,3.252,7.991,0,7.991,0H6.81c0,0,3.427,4.281,6.465,8.08V6.604z"/>
	<path fill="#1281BA" d="M13.274,10.02C9.999,5.928,5.258,0,5.258,0H4.076c0,0,6.044,7.554,9.198,11.497V10.02z"/>
	<path fill="#1281BA" d="M13.274,13.437C11.469,11.182,2.523,0,2.523,0H1.343l11.064,13.832c0,0,0.517,0,0.867,0V13.437z"/>
	<path fill="#1281BA" d="M0,1.739c2.973,3.716,9.674,12.093,9.674,12.093h1.182c0,0-9.329-11.662-10.855-13.569V1.739z"/>
	<path fill="#1281BA" d="M0,5.154c3.146,3.932,6.942,8.678,6.942,8.678h1.18c0,0-4.844-6.055-8.122-10.152V5.154z"/>
	<path fill="#1281BA" d="M0,8.571c2.261,2.826,4.208,5.261,4.208,5.261H5.39c0,0-2.672-3.34-5.39-6.737V8.571z"/>
	<path fill="#1281BA" d="M0,11.989c0.895,1.118,1.475,1.843,1.475,1.843h1.182c0,0-1.124-1.405-2.656-3.32V11.989z"/>
</g>
</svg>
