<?xml version="1.0" encoding="utf-8"?>
<!-- Generator: Adobe Illustrator 16.0.0, SVG Export Plug-In . SVG Version: 6.00 Build 0)  -->
<!DOCTYPE svg PUBLIC "-//W3C//DTD SVG 1.1//EN" "http://www.w3.org/Graphics/SVG/1.1/DTD/svg11.dtd">
<svg version="1.1" xmlns="http://www.w3.org/2000/svg" xmlns:xlink="http://www.w3.org/1999/xlink" x="0px" y="0px"
	 width="29.704px" height="29.708px" viewBox="0 0 29.704 29.708" enable-background="new 0 0 29.704 29.708" xml:space="preserve">
<g id="隔离模式" display="none">
	<g display="inline">
		<path fill="#6BE6FF" d="M185.942,29.708h0.527V5.299L172.791-8.38H-71.306c-3.061,0-5.551,2.49-5.551,5.551v7.893
			c0,2.461-2.003,4.463-4.463,4.463h-100.631c-1.334,0-2.586,0.519-3.528,1.461l-12.974,12.973l0.373,0.373l12.974-12.973
			c0.843-0.842,1.963-1.307,3.155-1.307H-81.32c2.752,0,4.99-2.238,4.99-4.99v-7.893c0-2.77,2.254-5.024,5.023-5.024h243.878
			l13.37,13.37V29.708z"/>
	</g>
</g>
<g id="隔离模式_x5F_复制">
	<g display="none">
		<path display="inline" fill="#6BE6FF" d="M185.942,29.708h0.527V5.299L172.791-8.38H-71.306c-3.061,0-5.551,2.49-5.551,5.551
			v7.893c0,2.461-2.003,4.463-4.463,4.463h-100.631c-1.334,0-2.586,0.519-3.528,1.461l-12.974,12.973l0.373,0.373l12.974-12.973
			c0.843-0.842,1.963-1.307,3.155-1.307H-81.32c2.752,0,4.99-2.238,4.99-4.99v-7.893c0-2.77,2.254-5.024,5.023-5.024h243.878
			l13.37,13.37V29.708z"/>
	</g>
	<path fill="#3F6EAC" d="M1.117,10.121c0,0,3.011,3.975,6.328,6.62c0,0,1.257,1.067,2.602-0.146c1.344-1.213,6.898-6.27,6.898-6.27
		s2.09-2.075,4.428-0.015c0,0,4.912,4.37,7.6,8.038c0,0,0.162,0.132,0.029,0.365c-0.131,0.234-0.395,0.877-0.395,0.877
		s-2.951-3.814-6.357-6.635c0,0-1.33-1.009-2.47,0.059c-1.14,1.066-6.548,6.007-7.409,6.635c-0.863,0.629-2.28,1.282-4.297-0.512
		c-1.572-1.396-5.688-5.29-7.308-7.746c0,0-0.146-0.131-0.029-0.394C0.877,10.68,1.117,10.121,1.117,10.121z"/>
	<path fill="#3F6EAC" d="M1.732,8.919l1.717,1.894c0,0,0.216,0.276,0.618-0.072c0.402-0.349,5.699-5.492,7.718-6.937
		c1.156-0.827,2.398-1.363,3.782-1.458c1.032-0.069,2.143,0.038,3.337,0.574c1.293,0.581,3.262,2.175,5.113,4.09
		c1.307,1.353,2.605,2.853,3.7,4.304c0.74,0.981,1.447,1.969,1.987,2.833c0,0,0.013-1.195-0.525-2.206c0,0-2.16-4.139-6.383-8.032
		c-0.411-0.379-4.012-3.985-7.508-3.906c0,0-3.26-0.184-6.229,2.257C8.57,2.663,3.36,7.155,1.732,8.919z"/>
	<path fill="#3F6EAC" d="M5.431,12.909l1.953,1.887c0,0,0.449,0.343,0.963-0.146c0,0,1.874-1.834,3.479-3.304
		c1.515-1.387,3.038-2.809,3.606-3.215c0,0,2.455-2.546,5.582-0.066c0,0,4.25,3.339,8.445,9.06l0.139-0.673
		c0,0,0.158-0.564-0.218-1.079c0,0-3.278-4.839-7.317-8.318c0,0-2.014-2.127-4.586-2.66c0,0-2.128-0.503-4.141,1.078
		c-0.989,0.777-3.14,2.78-4.932,4.485C6.742,11.543,5.431,12.909,5.431,12.909z"/>
	<path fill="#3F6EAC" d="M27.972,20.789l-1.717-1.893c0,0-0.215-0.276-0.617,0.072c-0.403,0.349-5.699,5.491-7.719,6.937
		c-1.156,0.827-2.397,1.363-3.782,1.457c-1.032,0.071-2.142-0.037-3.337-0.573c-1.293-0.581-3.262-2.175-5.113-4.091
		c-1.307-1.352-2.605-2.852-3.7-4.304C1.247,17.412,0.539,16.425,0,15.562c0,0-0.013,1.194,0.525,2.205c0,0,2.159,4.139,6.383,8.031
		c0.411,0.38,4.012,3.985,7.508,3.906c0,0,3.26,0.185,6.229-2.256C21.134,27.045,26.344,22.552,27.972,20.789z"/>
	<path fill="#3F6EAC" d="M24.273,16.799l-1.953-1.887c0,0-0.449-0.343-0.964,0.145c0,0-1.874,1.834-3.479,3.304
		c-1.515,1.386-3.038,2.809-3.606,3.215c0,0-2.455,2.546-5.582,0.065c0,0-4.25-3.338-8.445-9.059l-0.139,0.673
		c0,0-0.158,0.564,0.218,1.078c0,0,3.278,4.84,7.317,8.319c0,0,2.013,2.127,4.586,2.66c0,0,2.128,0.503,4.141-1.079
		c0.989-0.777,3.139-2.78,4.932-4.485C22.962,18.165,24.273,16.799,24.273,16.799z"/>
</g>
</svg>
