<?xml version="1.0" encoding="utf-8"?>
<!-- Generator: Adobe Illustrator 16.0.0, SVG Export Plug-In . SVG Version: 6.00 Build 0)  -->
<!DOCTYPE svg PUBLIC "-//W3C//DTD SVG 1.1//EN" "http://www.w3.org/Graphics/SVG/1.1/DTD/svg11.dtd">
<svg version="1.1" id="隔离模式" xmlns="http://www.w3.org/2000/svg" xmlns:xlink="http://www.w3.org/1999/xlink" x="0px"
	 y="0px" width="26.425px" height="20.971px" viewBox="0 0 26.425 20.971" enable-background="new 0 0 26.425 20.971"
	 xml:space="preserve">
<path fill="#426FAE" d="M7.826,13.417l1.581-1.596L8.16,10.559l1.247-1.282L7.826,7.693L6.59,8.956c0,0-0.444-0.453-0.825-0.84
	c-1.31-1.34-3.461-1.34-4.773,0C0.324,8.786,0,9.676,0,10.559c0,0.873,0.324,1.757,0.991,2.431c1.313,1.346,3.464,1.346,4.773,0
	c0.381-0.383,0.825-0.84,0.825-0.84L7.826,13.417z M4.208,11.388c-0.461,0.471-1.201,0.471-1.655,0
	c-0.221-0.228-0.334-0.533-0.334-0.829c0-0.312,0.113-0.612,0.334-0.845c0.454-0.467,1.194-0.467,1.655,0
	c0.363,0.374,0.817,0.845,0.817,0.845S4.571,11.011,4.208,11.388z M25.012,8.116c-1.314-1.34-3.462-1.34-4.781,0
	c-0.369,0.387-0.822,0.84-0.822,0.84l-1.243-1.263L16.6,9.276l1.242,1.282L16.6,11.821l1.565,1.596l1.243-1.268
	c0,0,0.453,0.457,0.822,0.84c1.319,1.346,3.467,1.346,4.781,0C25.673,12.315,26,11.432,26,10.559
	C26,9.676,25.673,8.786,25.012,8.116z M23.445,11.388c-0.452,0.471-1.19,0.471-1.646,0c-0.371-0.377-0.823-0.829-0.823-0.829
	s0.452-0.471,0.823-0.845c0.456-0.467,1.194-0.467,1.646,0c0.229,0.232,0.338,0.533,0.338,0.845
	C23.783,10.854,23.674,11.16,23.445,11.388z M14.581,10.559c0,0,3.67-3.748,4.032-4.122c1.324-1.345,1.324-3.524,0-4.878
	c-1.313-1.341-3.451-1.341-4.779,0c-0.515,0.538-0.819,0.844-0.819,0.844s-0.3-0.306-0.817-0.844c-1.325-1.341-3.463-1.341-4.785,0
	c-1.319,1.354-1.319,3.533,0,4.878c0.366,0.374,4.042,4.122,4.042,4.122s-3.676,3.732-4.042,4.111c-1.319,1.345-1.319,3.528,0,4.879
	c1.322,1.339,3.46,1.339,4.785,0c0.518-0.539,0.817-0.854,0.817-0.854s0.305,0.315,0.819,0.854c1.328,1.339,3.466,1.339,4.779,0
	c1.324-1.351,1.324-3.534,0-4.879C18.251,14.291,14.581,10.559,14.581,10.559z M8.979,4.839c-0.448-0.47-0.448-1.213,0-1.679
	c0.457-0.456,1.198-0.456,1.647,0c0.438,0.445,0.828,0.844,0.828,0.844l-1.248,1.263l1.563,1.602l1.246-1.271l1.248,1.271
	l1.561-1.602l-1.242-1.263c0,0,0.386-0.398,0.828-0.844c0.452-0.456,1.19-0.456,1.643,0c0.456,0.466,0.456,1.209,0,1.679
	c-0.476,0.486-4.046,4.137-4.046,4.137S9.444,5.325,8.979,4.839z M17.052,17.948c-0.452,0.455-1.19,0.455-1.643,0
	c-0.442-0.448-0.828-0.842-0.828-0.842l1.242-1.271l-1.561-1.598l-1.248,1.272l-1.246-1.272l-1.563,1.598l1.248,1.271
	c0,0-0.391,0.394-0.828,0.842c-0.449,0.455-1.19,0.455-1.647,0c-0.448-0.462-0.448-1.226,0-1.681
	c0.466-0.485,4.027-4.137,4.027-4.137s3.57,3.651,4.046,4.137C17.508,16.723,17.508,17.486,17.052,17.948z"/>
</svg>
