<?xml version="1.0" encoding="utf-8"?>
<!-- Generator: Adobe Illustrator 16.0.0, SVG Export Plug-In . SVG Version: 6.00 Build 0)  -->
<!DOCTYPE svg PUBLIC "-//W3C//DTD SVG 1.1//EN" "http://www.w3.org/Graphics/SVG/1.1/DTD/svg11.dtd">
<svg version="1.1" xmlns="http://www.w3.org/2000/svg" xmlns:xlink="http://www.w3.org/1999/xlink" x="0px" y="0px"
	 width="29.704px" height="29.708px" viewBox="0 0 29.704 29.708" enable-background="new 0 0 29.704 29.708" xml:space="preserve">
<g id="隔离模式" display="none">
	<g display="inline">
		<path fill="#6BE6FF" d="M185.942,29.708h0.527V5.299L172.791-8.38H-71.306c-3.061,0-5.551,2.49-5.551,5.551v7.893
			c0,2.461-2.003,4.463-4.463,4.463h-100.631c-1.334,0-2.586,0.519-3.528,1.461l-12.974,12.973l0.373,0.373l12.974-12.973
			c0.843-0.842,1.963-1.307,3.155-1.307H-81.32c2.752,0,4.99-2.238,4.99-4.99v-7.893c0-2.77,2.254-5.024,5.023-5.024h243.878
			l13.37,13.37V29.708z"/>
	</g>
</g>
<g id="隔离模式_x5F_复制">
	<g display="none">
		<path display="inline" fill="#6BE6FF" d="M185.942,29.708h0.527V5.299L172.791-8.38H-71.306c-3.061,0-5.551,2.49-5.551,5.551
			v7.893c0,2.461-2.003,4.463-4.463,4.463h-100.631c-1.334,0-2.586,0.519-3.528,1.461l-12.974,12.973l0.373,0.373l12.974-12.973
			c0.843-0.842,1.963-1.307,3.155-1.307H-81.32c2.752,0,4.99-2.238,4.99-4.99v-7.893c0-2.77,2.254-5.024,5.023-5.024h243.878
			l13.37,13.37V29.708z"/>
	</g>
	<path fill-rule="evenodd" clip-rule="evenodd" fill="#3F6EAC" d="M10.675,5.562c0.126,0.262,0.252,0.656,0.252,0.92
		c-2.398,1.182-4.039,2.495-4.165,4.203c0.126,1.445,1.515,1.97,3.407,2.232c0.505-3.94,1.641-8.013,4.417-8.67
		c2.019-0.394,3.408,1.445,4.291,3.285c-0.379,0.131-0.631,0.262-1.01,0.394c-0.378-0.394-0.757-0.656-1.262-0.394
		c-1.388,1.051-1.893,2.89-2.145,4.859c3.281-0.394,7.697-2.758,7.697-4.991c0-1.445-1.009-1.839-2.271-2.103
		c-0.126-0.394-0.126-0.919-0.253-1.313c3.786-0.132,7.067,1.97,6.688,4.466c-1.01,5.123-7.698,7.225-11.862,8.144
		c0,3.941,0.631,6.306,2.019,6.7c0.631,0,1.262-1.051,1.893-4.467c0.63-0.131,1.135-0.394,1.767-0.524
		c-0.631,5.385-2.776,8.538-4.795,8.67c-1.893,0.131-3.533-1.84-4.543-4.861c-0.378-1.445-0.757-3.152-0.757-5.123
		c-3.534-0.395-6.563-1.313-6.688-4.072C3.229,10.028,6.637,7.006,10.675,5.562"/>
</g>
</svg>
