<?xml version="1.0" encoding="utf-8"?>
<!-- Generator: Adobe Illustrator 16.0.0, SVG Export Plug-In . SVG Version: 6.00 Build 0)  -->
<!DOCTYPE svg PUBLIC "-//W3C//DTD SVG 1.1//EN" "http://www.w3.org/Graphics/SVG/1.1/DTD/svg11.dtd">
<svg version="1.1" id="隔离模式" xmlns="http://www.w3.org/2000/svg" xmlns:xlink="http://www.w3.org/1999/xlink" x="0px"
	 y="0px" width="384.625px" height="138.623px" viewBox="0 0 384.625 138.623" enable-background="new 0 0 384.625 138.623"
	 xml:space="preserve">
<g>
	<path fill="#A6D7FF" d="M3.831,14.095h136.545l0.062,0.061l7.779,7.78V48.37h-0.416V22.107l-7.597-7.597H3.831
		c-0.308,0-0.559,0.251-0.559,0.559v23.474c0,0.147,0.058,0.287,0.16,0.392l11.034,11.216h133.542v0.416H14.293l-0.062-0.063
		L3.136,39.228c-0.18-0.184-0.279-0.427-0.279-0.684V15.07C2.856,14.533,3.294,14.095,3.831,14.095z"/>
</g>
<polygon fill="#00C6FF" points="10.068,8.198 3.856,14.409 105.043,14.409 111.255,8.198 "/>
<polygon fill="#61B8FF" stroke="#61B8FF" stroke-width="1.2741" stroke-miterlimit="10" points="124.924,8.851 114.406,8.851 
	109.336,13.756 124.924,13.756 "/>
<polygon fill="#61B8FF" points="141.353,15.442 141.938,16.026 141.336,16.627 140.752,16.043 136.849,16.043 137.449,15.442 "/>
<polygon fill="#61B8FF" points="147.1,16.68 147.1,17.424 145.931,17.424 143.655,15.149 139.529,15.149 139.529,14.192 
	144.612,14.192 "/>
<polygon fill="#61B8FF" points="147.595,18.532 147.317,18.809 146.205,17.698 147.282,17.698 147.282,16.367 147.595,16.678 "/>
<polygon fill="#61B8FF" points="141.796,15.442 143.413,15.442 147.859,19.889 147.859,22.269 146.242,22.269 146.242,19.889 "/>
<g>
	<rect x="134.525" y="14.452" fill="#61B8FF" width="6.522" height="0.416"/>
</g>
<polygon fill="#61B8FF" points="146.085,29.706 152.116,29.706 152.116,46.087 147.636,50.567 147.636,34.187 141.604,34.187 "/>
<g>
	<polygon fill="#61B8FF" points="102.067,134.614 14.534,134.614 14.467,134.548 6.067,125.917 6.067,73.053 6.517,73.053 
		6.517,125.724 14.719,134.153 101.619,134.153 101.619,83.998 101.415,83.488 89.536,71.072 6.292,71.072 6.292,70.614 
		89.72,70.614 89.787,70.681 101.812,83.267 102.067,83.955 	"/>
</g>
<polygon fill="#61B8FF" points="3.092,74.544 3.092,68.911 15.584,68.911 19,73.098 6.508,73.098 6.508,78.729 "/>
<g>
	<polygon fill="#61B8FF" points="100.707,129.43 16.479,129.43 11.018,123.974 11.018,71.43 11.819,71.43 11.819,123.644 
		16.812,128.629 99.908,128.629 99.908,118.891 145.104,118.891 145.104,119.689 100.707,119.689 	"/>
</g>
<polygon fill="#61B8FF" points="9.565,69.813 7.483,69.813 7.483,66.54 13.848,60.175 13.848,50.146 16.523,50.146 16.523,62.854 
	"/>
<path fill="#2772CB" d="M15.305,74.066h70.756c1.036,0,2.03,0.415,2.764,1.16l5.338,5.416c0.732,0.745,1.142,1.752,1.142,2.807
	v41.617H24.556c-1.037,0-2.034-0.418-2.767-1.163l-5.336-5.412c-0.731-0.746-1.147-1.754-1.147-2.811L15.305,74.066L15.305,74.066z"
	/>
<g>
	<polygon fill="#61B8FF" points="234.455,133.707 146.921,133.707 146.855,133.64 138.455,125.008 138.455,72.145 138.906,72.145 
		138.906,124.813 147.106,133.246 234.005,133.246 234.005,83.089 233.802,82.582 221.922,70.165 138.681,70.165 138.681,69.707 
		222.106,69.707 222.175,69.773 234.199,82.36 234.455,83.047 	"/>
</g>
<g>
	<polygon fill="#61B8FF" points="229.442,127.521 150.238,127.521 145.104,122.066 145.104,69.521 145.857,69.521 145.857,121.732 
		150.552,126.722 228.69,126.722 228.69,116.98 271.19,116.98 271.19,117.78 229.442,117.78 	"/>
</g>
<line fill="none" stroke="#52A0E4" stroke-miterlimit="10" x1="376.214" y1="18.855" x2="379.021" y2="22.269"/>
<path fill="#2772CB" d="M147.693,73.159h70.757c1.035,0,2.03,0.417,2.762,1.16l5.34,5.416c0.73,0.746,1.142,1.752,1.142,2.808
	v41.616h-70.75c-1.037,0-2.034-0.417-2.767-1.163l-5.336-5.413c-0.731-0.745-1.147-1.755-1.147-2.81V73.159L147.693,73.159z"/>
<polygon fill="#61B8FF" points="135.064,73.606 135.064,67.976 147.556,67.976 150.972,72.162 138.482,72.162 138.482,77.793 "/>
<g>
	<polygon fill="#61B8FF" points="366.969,132.707 279.434,132.707 279.368,132.64 270.969,124.008 270.969,71.145 271.419,71.145 
		271.419,123.813 279.619,132.246 366.521,132.246 366.521,82.089 366.314,81.582 354.438,69.165 271.192,69.165 271.192,68.707 
		354.62,68.707 354.688,68.773 366.711,81.36 366.969,82.047 	"/>
</g>
<polygon fill="#61B8FF" points="267.731,73.522 267.731,67.89 280.224,67.89 283.64,72.076 271.147,72.076 271.147,77.707 "/>
<path fill="#2772CB" d="M278.969,72.884h70.756c1.036,0,2.031,0.417,2.764,1.161l5.338,5.416c0.731,0.747,1.143,1.752,1.143,2.808
	v41.615h-70.751c-1.037,0-2.033-0.418-2.766-1.163l-5.335-5.414c-0.732-0.745-1.148-1.755-1.148-2.81V72.884L278.969,72.884z"/>
<g>
	<polygon fill="#61B8FF" points="375.811,118.413 358.775,118.413 358.775,117.649 375.33,117.649 382.4,112.981 382.4,23.751 
		383.561,23.751 383.561,113.299 	"/>
</g>
<line fill="none" stroke="#52A0E4" stroke-width="0.75" stroke-miterlimit="10" x1="148.1" y1="26.208" x2="194.68" y2="26.208"/>
<line fill="none" stroke="#52A0E4" stroke-width="0.75" stroke-miterlimit="10" x1="194.68" y1="26.208" x2="194.68" y2="18.855"/>
<path fill="none" stroke="#52A0E4" stroke-width="0.75" stroke-miterlimit="10" d="M194.68,18.855h181.534"/>
<line fill="none" stroke="#52A0E4" stroke-width="0.75" stroke-miterlimit="10" x1="152.116" y1="29.706" x2="197.755" y2="29.706"/>
<line fill="none" stroke="#52A0E4" stroke-width="0.75" stroke-miterlimit="10" x1="197.755" y1="29.706" x2="197.755" y2="22.269"/>
<line fill="none" stroke="#52A0E4" stroke-width="0.75" stroke-miterlimit="10" x1="197.755" y1="22.269" x2="374.349" y2="22.269"/>
<line fill="none" stroke="#52A0E4" stroke-width="0.75" stroke-miterlimit="10" x1="379.021" y1="26.208" x2="379.021" y2="74.066"/>
<polygon fill="#61B8FF" points="383.406,23.597 383.406,25.208 380.875,25.208 375.951,20.285 367.023,20.285 367.023,18.213 
	378.021,18.213 "/>
<polygon fill="#61B8FF" points="368.781,18.686 372.281,18.686 381.902,28.307 381.902,33.458 378.402,33.458 378.402,28.307 "/>
<polygon fill="#61B8FF" points="381.151,88.255 377.964,85.929 377.964,73.13 382.65,69.707 385.84,72.033 381.151,75.459 "/>
</svg>
