<?xml version="1.0" encoding="utf-8"?>
<!-- Generator: Adobe Illustrator 16.0.0, SVG Export Plug-In . SVG Version: 6.00 Build 0)  -->
<!DOCTYPE svg PUBLIC "-//W3C//DTD SVG 1.1//EN" "http://www.w3.org/Graphics/SVG/1.1/DTD/svg11.dtd">
<svg version="1.1" xmlns="http://www.w3.org/2000/svg" xmlns:xlink="http://www.w3.org/1999/xlink" x="0px" y="0px" width="4.764px"
	 height="28px" viewBox="0 0 4.764 28" enable-background="new 0 0 4.764 28" xml:space="preserve">
<g id="图层_1" display="none">
	<g display="inline">
		<path fill="#1A5BA2" d="M50.141-0.335c3.463,4.659,7.71,10.377,7.71,10.377h1.293c0,0-4.247-5.718-7.71-10.377H50.141z"/>
		<path fill="#1A5BA2" d="M47.153-0.335c3.463,4.659,7.71,10.377,7.71,10.377h1.291c0,0-4.247-5.718-7.71-10.377H47.153z"/>
		<path fill="#1A5BA2" d="M44.163-0.335c3.463,4.659,7.71,10.377,7.71,10.377h1.293c0,0-4.247-5.718-7.71-10.377H44.163z"/>
		<path fill="#1A5BA2" d="M41.174-0.335c3.462,4.659,7.71,10.377,7.71,10.377h1.291c0,0-4.247-5.718-7.71-10.377H41.174z"/>
		<path fill="#1A5BA2" d="M38.184-0.335c3.462,4.659,7.71,10.377,7.71,10.377h1.293c0,0-4.247-5.718-7.71-10.377H38.184z"/>
		<path fill="#1A5BA2" d="M35.196-0.335c3.462,4.659,7.71,10.377,7.71,10.377h1.291c0,0-4.247-5.718-7.71-10.377H35.196z"/>
		<path fill="#1A5BA2" d="M32.208-0.335c3.462,4.659,7.71,10.377,7.71,10.377h1.29c0,0-4.248-5.718-7.71-10.377H32.208z"/>
		<path fill="#1A5BA2" d="M29.218-0.335c3.463,4.659,7.71,10.377,7.71,10.377h1.291c0,0-4.247-5.718-7.71-10.377H29.218z"/>
		<path fill="#1A5BA2" d="M26.23-0.335c3.462,4.659,7.71,10.377,7.71,10.377h1.291c0,0-4.247-5.718-7.71-10.377H26.23z"/>
		<path fill="#1A5BA2" d="M23.24-0.335c3.462,4.659,7.71,10.377,7.71,10.377h1.291c0,0-4.247-5.718-7.71-10.377H23.24z"/>
		<path fill="#1A5BA2" d="M20.251-0.335c3.462,4.659,7.71,10.377,7.71,10.377h1.291c0,0-4.247-5.718-7.71-10.377H20.251z"/>
		<path fill="#1A5BA2" d="M19.166,2.228c2.942,3.959,5.806,7.814,5.806,7.814h1.291c0,0-3.766-5.069-7.097-9.552V2.228z"/>
		<path fill="#1A5BA2" d="M19.166,6.25c1.631,2.194,2.816,3.792,2.816,3.792h1.292c0,0-1.853-2.495-4.108-5.53V6.25z"/>
		<path fill="#1A5BA2" d="M19.166,10.042c0.352,0,1.118,0,1.118,0s-0.426-0.573-1.118-1.506V10.042z"/>
		<path fill="#1A5BA2" d="M106.822-0.335c0.87,1.17,1.79,2.408,2.679,3.605V1.529c-0.467-0.629-0.934-1.256-1.386-1.864H106.822z"/>
		<path fill="#1A5BA2" d="M103.833-0.335c1.938,2.608,4.12,5.546,5.667,7.629V5.555c-1.352-1.82-2.933-3.948-4.376-5.89H103.833z"/>
		<path fill="#1A5BA2" d="M100.841-0.335c3.463,4.659,7.71,10.377,7.71,10.377s0.565,0,0.949,0V9.578
			c-1.08-1.452-4.493-6.046-7.366-9.914H100.841z"/>
		<path fill="#1A5BA2" d="M97.853-0.335c3.463,4.659,7.71,10.377,7.71,10.377h1.292c0,0-4.248-5.718-7.71-10.377H97.853z"/>
		<path fill="#1A5BA2" d="M94.866-0.335c3.463,4.659,7.71,10.377,7.71,10.377h1.29c0,0-4.247-5.718-7.71-10.377H94.866z"/>
		<path fill="#1A5BA2" d="M91.876-0.335c3.462,4.659,7.71,10.377,7.71,10.377h1.291c0,0-4.248-5.718-7.71-10.377H91.876z"/>
		<path fill="#1A5BA2" d="M88.887-0.335c3.463,4.659,7.71,10.377,7.71,10.377h1.292c0,0-4.248-5.718-7.71-10.377H88.887z"/>
		<path fill="#1A5BA2" d="M85.897-0.335c3.463,4.659,7.71,10.377,7.71,10.377h1.292c0,0-4.248-5.718-7.71-10.377H85.897z"/>
		<path fill="#1A5BA2" d="M82.909-0.335c3.463,4.659,7.71,10.377,7.71,10.377h1.291c0,0-4.247-5.718-7.71-10.377H82.909z"/>
		<path fill="#1A5BA2" d="M79.918-0.335c3.463,4.659,7.71,10.377,7.71,10.377h1.292c0,0-4.248-5.718-7.71-10.377H79.918z"/>
		<path fill="#1A5BA2" d="M76.93-0.335c3.462,4.659,7.71,10.377,7.71,10.377h1.291c0,0-4.247-5.718-7.71-10.377H76.93z"/>
		<path fill="#1A5BA2" d="M73.94-0.335c3.462,4.659,7.71,10.377,7.71,10.377h1.291c0,0-4.247-5.718-7.71-10.377H73.94z"/>
		<path fill="#1A5BA2" d="M70.953-0.335c3.463,4.659,7.71,10.377,7.71,10.377h1.29c0,0-4.247-5.718-7.71-10.377H70.953z"/>
		<path fill="#1A5BA2" d="M67.963-0.335c3.462,4.659,7.709,10.377,7.709,10.377h1.293c0,0-4.247-5.718-7.709-10.377H67.963z"/>
		<path fill="#1A5BA2" d="M64.974-0.335c3.463,4.659,7.71,10.377,7.71,10.377h1.291c0,0-4.247-5.718-7.709-10.377H64.974z"/>
		<path fill="#1A5BA2" d="M61.984-0.335c3.463,4.659,7.71,10.377,7.71,10.377h1.293c0,0-4.247-5.718-7.71-10.377H61.984z"/>
		<path fill="#1A5BA2" d="M58.996-0.335c3.463,4.659,7.71,10.377,7.71,10.377h1.291c0,0-4.247-5.718-7.709-10.377H58.996z"/>
		<path fill="#1A5BA2" d="M56.005-0.335c3.463,4.659,7.71,10.377,7.71,10.377h1.293c0,0-4.247-5.718-7.71-10.377H56.005z"/>
		<path fill="#1A5BA2" d="M53.017-0.335c3.462,4.659,7.71,10.377,7.71,10.377h1.291c0,0-4.247-5.718-7.71-10.377H53.017z"/>
	</g>
	<path display="inline" fill="#1A5BA2" d="M127.712,11.084c-17.948,0-148.999,0-148.999,0v2.563c0,0,131.051,0,148.999,0V11.084z"/>
	<path display="inline" fill="#1A5BA2" d="M-21.287-0.335c0,5.822,0,13.848,0,13.848h38.631c0,0,0-8.026,0-13.848H-21.287z"/>
	<polygon display="inline" fill="#1A5BA2" points="111.003,10.171 111.003,-0.354 117.94,-0.354 127.712,10.171 	"/>
</g>
<g id="图层_2">
	<rect x="3.765" y="9.5" fill="#1A5BA2" width="1" height="9"/>
</g>
<g id="图层_2_x5F_复制">
	<rect x="1.986" fill="#1A5BA2" width="1" height="28"/>
</g>
<g id="图层_2_x5F_复制_2">
	<rect x="0" y="5" fill="#1A5BA2" width="1" height="18"/>
</g>
</svg>
