<?xml version="1.0" encoding="utf-8"?>
<!-- Generator: Adobe Illustrator 16.0.0, SVG Export Plug-In . SVG Version: 6.00 Build 0)  -->
<!DOCTYPE svg PUBLIC "-//W3C//DTD SVG 1.1//EN" "http://www.w3.org/Graphics/SVG/1.1/DTD/svg11.dtd">
<svg version="1.1" xmlns="http://www.w3.org/2000/svg" xmlns:xlink="http://www.w3.org/1999/xlink" x="0px" y="0px"
	 width="384.922px" height="45.647px" viewBox="0 0 384.922 45.647" enable-background="new 0 0 384.922 45.647"
	 xml:space="preserve">
<g id="隔离模式">
	<g>
		<path fill="#6BE6FF" d="M384.395,45.647h0.527V21.239L371.244,7.56H127.147c-3.061,0-5.551,2.49-5.551,5.551v7.893
			c0,2.461-2.003,4.463-4.463,4.463H16.502c-1.334,0-2.586,0.519-3.528,1.461L0,39.901l0.373,0.373l12.974-12.973
			c0.843-0.842,1.963-1.307,3.155-1.307h100.631c2.752,0,4.99-2.238,4.99-4.99v-7.893c0-2.77,2.254-5.024,5.023-5.024h243.878
			l13.37,13.37V45.647z"/>
	</g>
</g>
<g id="隔离模式_x5F_复制">
	<g>
		<path fill="#6BE6FF" d="M384.395,45.647h0.527V21.239L371.244,7.56H127.147c-3.061,0-5.551,2.49-5.551,5.551v7.893
			c0,2.461-2.003,4.463-4.463,4.463H16.502c-1.334,0-2.586,0.519-3.528,1.461L0,39.901l0.373,0.373l12.974-12.973
			c0.843-0.842,1.963-1.307,3.155-1.307h100.631c2.752,0,4.99-2.238,4.99-4.99v-7.893c0-2.77,2.254-5.024,5.023-5.024h243.878
			l13.37,13.37V45.647z"/>
	</g>
</g>
</svg>
