<?xml version="1.0" encoding="utf-8"?>
<!-- Generator: Adobe Illustrator 16.0.0, SVG Export Plug-In . SVG Version: 6.00 Build 0)  -->
<!DOCTYPE svg PUBLIC "-//W3C//DTD SVG 1.1//EN" "http://www.w3.org/Graphics/SVG/1.1/DTD/svg11.dtd">
<svg version="1.1" id="图层_1" xmlns="http://www.w3.org/2000/svg" xmlns:xlink="http://www.w3.org/1999/xlink" x="0px" y="0px"
	 width="149px" height="14px" viewBox="0 0 149 14" enable-background="new 0 0 149 14" xml:space="preserve">
<g>
	<path fill="#1A5BA2" d="M71.427,0.019c3.463,4.659,7.71,10.377,7.71,10.377h1.293c0,0-4.247-5.718-7.71-10.377H71.427z"/>
	<path fill="#1A5BA2" d="M68.439,0.019c3.463,4.659,7.71,10.377,7.71,10.377h1.291c0,0-4.247-5.718-7.71-10.377H68.439z"/>
	<path fill="#1A5BA2" d="M65.449,0.019c3.463,4.659,7.71,10.377,7.71,10.377h1.293c0,0-4.247-5.718-7.71-10.377H65.449z"/>
	<path fill="#1A5BA2" d="M62.46,0.019c3.462,4.659,7.71,10.377,7.71,10.377h1.291c0,0-4.247-5.718-7.71-10.377H62.46z"/>
	<path fill="#1A5BA2" d="M59.47,0.019c3.462,4.659,7.71,10.377,7.71,10.377h1.293c0,0-4.247-5.718-7.71-10.377H59.47z"/>
	<path fill="#1A5BA2" d="M56.482,0.019c3.462,4.659,7.71,10.377,7.71,10.377h1.291c0,0-4.247-5.718-7.71-10.377H56.482z"/>
	<path fill="#1A5BA2" d="M53.495,0.019c3.462,4.659,7.71,10.377,7.71,10.377h1.29c0,0-4.248-5.718-7.71-10.377H53.495z"/>
	<path fill="#1A5BA2" d="M50.504,0.019c3.463,4.659,7.71,10.377,7.71,10.377h1.291c0,0-4.247-5.718-7.71-10.377H50.504z"/>
	<path fill="#1A5BA2" d="M47.516,0.019c3.462,4.659,7.71,10.377,7.71,10.377h1.291c0,0-4.247-5.718-7.71-10.377H47.516z"/>
	<path fill="#1A5BA2" d="M44.526,0.019c3.462,4.659,7.71,10.377,7.71,10.377h1.291c0,0-4.247-5.718-7.71-10.377H44.526z"/>
	<path fill="#1A5BA2" d="M41.538,0.019c3.462,4.659,7.71,10.377,7.71,10.377h1.291c0,0-4.247-5.718-7.71-10.377H41.538z"/>
	<path fill="#1A5BA2" d="M40.452,2.582c2.942,3.959,5.806,7.814,5.806,7.814h1.291c0,0-3.766-5.069-7.097-9.552V2.582z"/>
	<path fill="#1A5BA2" d="M40.452,6.604c1.631,2.194,2.816,3.792,2.816,3.792h1.292c0,0-1.853-2.495-4.108-5.53V6.604z"/>
	<path fill="#1A5BA2" d="M40.452,10.396c0.352,0,1.118,0,1.118,0s-0.426-0.573-1.118-1.506V10.396z"/>
	<path fill="#1A5BA2" d="M128.108,0.019c0.87,1.17,1.79,2.408,2.679,3.605V1.883c-0.467-0.629-0.934-1.256-1.386-1.864H128.108z"/>
	<path fill="#1A5BA2" d="M125.12,0.019c1.938,2.608,4.12,5.546,5.667,7.629V5.909c-1.352-1.82-2.933-3.948-4.376-5.89H125.12z"/>
	<path fill="#1A5BA2" d="M122.127,0.019c3.463,4.659,7.71,10.377,7.71,10.377s0.565,0,0.949,0V9.932
		c-1.08-1.452-4.493-6.046-7.366-9.914H122.127z"/>
	<path fill="#1A5BA2" d="M119.139,0.019c3.463,4.659,7.71,10.377,7.71,10.377h1.292c0,0-4.248-5.718-7.71-10.377H119.139z"/>
	<path fill="#1A5BA2" d="M116.152,0.019c3.463,4.659,7.71,10.377,7.71,10.377h1.29c0,0-4.247-5.718-7.71-10.377H116.152z"/>
	<path fill="#1A5BA2" d="M113.163,0.019c3.462,4.659,7.71,10.377,7.71,10.377h1.291c0,0-4.248-5.718-7.71-10.377H113.163z"/>
	<path fill="#1A5BA2" d="M110.173,0.019c3.463,4.659,7.71,10.377,7.71,10.377h1.292c0,0-4.248-5.718-7.71-10.377H110.173z"/>
	<path fill="#1A5BA2" d="M107.183,0.019c3.463,4.659,7.71,10.377,7.71,10.377h1.292c0,0-4.248-5.718-7.71-10.377H107.183z"/>
	<path fill="#1A5BA2" d="M104.195,0.019c3.463,4.659,7.71,10.377,7.71,10.377h1.291c0,0-4.247-5.718-7.71-10.377H104.195z"/>
	<path fill="#1A5BA2" d="M101.205,0.019c3.463,4.659,7.71,10.377,7.71,10.377h1.292c0,0-4.248-5.718-7.71-10.377H101.205z"/>
	<path fill="#1A5BA2" d="M98.216,0.019c3.462,4.659,7.71,10.377,7.71,10.377h1.291c0,0-4.247-5.718-7.71-10.377H98.216z"/>
	<path fill="#1A5BA2" d="M95.226,0.019c3.462,4.659,7.71,10.377,7.71,10.377h1.291c0,0-4.247-5.718-7.71-10.377H95.226z"/>
	<path fill="#1A5BA2" d="M92.239,0.019c3.463,4.659,7.71,10.377,7.71,10.377h1.29c0,0-4.247-5.718-7.71-10.377H92.239z"/>
	<path fill="#1A5BA2" d="M89.25,0.019c3.462,4.659,7.709,10.377,7.709,10.377h1.293c0,0-4.247-5.718-7.709-10.377H89.25z"/>
	<path fill="#1A5BA2" d="M86.26,0.019c3.463,4.659,7.71,10.377,7.71,10.377h1.291c0,0-4.247-5.718-7.709-10.377H86.26z"/>
	<path fill="#1A5BA2" d="M83.27,0.019c3.463,4.659,7.71,10.377,7.71,10.377h1.293c0,0-4.247-5.718-7.71-10.377H83.27z"/>
	<path fill="#1A5BA2" d="M80.282,0.019c3.463,4.659,7.71,10.377,7.71,10.377h1.291c0,0-4.247-5.718-7.709-10.377H80.282z"/>
	<path fill="#1A5BA2" d="M77.292,0.019c3.463,4.659,7.71,10.377,7.71,10.377h1.293c0,0-4.247-5.718-7.71-10.377H77.292z"/>
	<path fill="#1A5BA2" d="M74.303,0.019c3.462,4.659,7.71,10.377,7.71,10.377h1.291c0,0-4.247-5.718-7.71-10.377H74.303z"/>
</g>
<path fill="#1A5BA2" d="M148.999,11.438c-17.948,0-148.999,0-148.999,0V14c0,0,131.051,0,148.999,0V11.438z"/>
<path fill="#1A5BA2" d="M0,0.019C0,5.84,0,13.867,0,13.867H38.63c0,0,0-8.026,0-13.848H0z"/>
<polygon fill="#1A5BA2" points="132.29,10.525 132.29,0 139.226,0 148.999,10.525 "/>
</svg>
